<svg version="1.1" xmlns="http://www.w3.org/2000/svg" xmlns:xlink="http://www.w3.org/1999/xlink" width="11.654" height="8.09801" viewBox="0,0,11.654,8.09801"><g transform="translate(-234.3345,-175.89249)"><g fill="#ffffff" fill-rule="evenodd" stroke="#000000" stroke-width="0" stroke-linecap="round" stroke-miterlimit="10"><path d="M234.3345,183.9905v-8.004h1.898c0.37533,0 0.62533,0.003 0.75,0.009c0.06543,0.00318 0.13078,0.00784 0.196,0.014c0.07148,0.00664 0.14283,0.01464 0.214,0.024c0.22771,0.02919 0.45123,0.0849 0.666,0.166c0.28754,0.10814 0.5482,0.27736 0.764,0.496c0.33317,0.33803 0.5218,0.7924 0.526,1.267c0.00073,0.02499 0.00106,0.05 0.001,0.075c0.00163,0.18061 -0.01954,0.36069 -0.063,0.536c-0.06493,0.26363 -0.19885,0.50523 -0.388,0.7c-0.17316,0.17503 -0.37553,0.31852 -0.598,0.424c-0.17,0.08267 -0.35867,0.15067 -0.566,0.204c-0.02991,0.0077 -0.05991,0.01503 -0.09,0.022c0.20919,0.02766 0.4154,0.07453 0.616,0.14c0.24,0.08 0.452,0.186 0.636,0.318c0.0555,0.03989 0.1089,0.08261 0.16,0.128c0.23499,0.21079 0.39739,0.49043 0.464,0.799c0.0398,0.17416 0.05927,0.35235 0.058,0.531c0,0.39067 -0.09567,0.74733 -0.287,1.07c-0.19199,0.32241 -0.47006,0.58491 -0.803,0.758c-0.1394,0.07417 -0.28621,0.1335 -0.438,0.177c-0.10553,0.03041 -0.2127,0.05478 -0.321,0.073c-0.19267,0.03267 -0.424,0.05433 -0.694,0.065c-0.1406,0.00546 -0.28129,0.00813 -0.422,0.008zM236.0745,180.3285h-0.598v2.689h0.873c0.21844,0.00094 0.43666,-0.01376 0.653,-0.044c0.23,-0.03333 0.44167,-0.08533 0.635,-0.156c0.05576,-0.02041 0.11079,-0.04276 0.165,-0.067c0.39867,-0.17733 0.598,-0.516 0.598,-1.016c0.00141,-0.14166 -0.01403,-0.28299 -0.046,-0.421c-0.08533,-0.352 -0.28967,-0.59267 -0.613,-0.722c-0.43933,-0.17533 -0.995,-0.263 -1.667,-0.263zM236.0625,176.9705h-0.586v2.426h0.815c0.21842,0.00133 0.43665,-0.01304 0.653,-0.043c0.51933,-0.07533 0.87933,-0.25167 1.08,-0.529c0.13014,-0.18785 0.19641,-0.41259 0.189,-0.641c0.00049,-0.09675 -0.00923,-0.19329 -0.029,-0.288c-0.02667,-0.126 -0.07267,-0.23733 -0.138,-0.334c-0.012,-0.01781 -0.02467,-0.03516 -0.038,-0.052c-0.13685,-0.17189 -0.32008,-0.30099 -0.528,-0.372c-0.18082,-0.06473 -0.36832,-0.10901 -0.559,-0.132c-0.02728,-0.00314 -0.05462,-0.00581 -0.082,-0.008c-0.08622,-0.00697 -0.17257,-0.0123 -0.259,-0.016c-0.07733,-0.004 -0.15933,-0.00667 -0.246,-0.008c-0.09065,-0.0019 -0.18133,-0.0029 -0.272,-0.003z"/><path d="M241.2015,177.4045l-0.123,-1.031c0.10472,-0.04353 0.21006,-0.08553 0.316,-0.126c0.11533,-0.044 0.22467,-0.083 0.328,-0.117c0.04583,-0.01552 0.09183,-0.03053 0.138,-0.045c0.1353,-0.04164 0.27244,-0.07701 0.411,-0.106c0.08018,-0.01697 0.16089,-0.03131 0.242,-0.043c0.1092,-0.01523 0.21895,-0.02624 0.329,-0.033c0.12085,-0.0075 0.24191,-0.01117 0.363,-0.011c0.508,0 0.961,0.09167 1.359,0.275c0.21695,0.09812 0.41734,0.22936 0.594,0.389c0.12682,0.11571 0.23838,0.2471 0.332,0.391c0.2176,0.33532 0.33167,0.72728 0.328,1.127c0.00001,0.003 0.00001,0.006 0,0.009c0,0.254 -0.035,0.505 -0.105,0.753c-0.03792,0.13096 -0.08538,0.25897 -0.142,0.383c-0.05133,0.11533 -0.112,0.23333 -0.182,0.354c-0.01022,0.0174 -0.02055,0.03474 -0.031,0.052c-0.08779,0.14569 -0.18188,0.28749 -0.282,0.425c-0.11068,0.15242 -0.22675,0.30085 -0.348,0.445c-0.254,0.30267 -0.582,0.659 -0.984,1.069c-0.22137,0.22177 -0.44742,0.43882 -0.678,0.651c-0.38533,0.354 -0.73933,0.64867 -1.062,0.884c0.05887,-0.01205 0.11827,-0.02139 0.178,-0.028c0.17267,-0.02 0.39633,-0.03 0.671,-0.03h3.135v0.949h-5.098v-1.213c0.30728,-0.26155 0.6113,-0.52691 0.912,-0.796c0.09605,-0.0859 0.19172,-0.17224 0.287,-0.259c0.26891,-0.24574 0.53036,-0.49952 0.784,-0.761c0.12189,-0.12552 0.24223,-0.25253 0.361,-0.381c0.23293,-0.2505 0.45033,-0.51499 0.651,-0.792c0.11295,-0.15653 0.21937,-0.31767 0.319,-0.483c0.0842,-0.13818 0.15839,-0.28221 0.222,-0.431c0.066,-0.15733 0.11233,-0.30867 0.139,-0.454c0.01836,-0.09727 0.02773,-0.19602 0.028,-0.295c0.00745,-0.32682 -0.12455,-0.64137 -0.363,-0.865c-0.02546,-0.0243 -0.05182,-0.04764 -0.079,-0.07c-0.20802,-0.17007 -0.45632,-0.28372 -0.721,-0.33c-0.13425,-0.02466 -0.27051,-0.03671 -0.407,-0.036c-0.30005,0.00246 -0.59792,0.05137 -0.883,0.145c-0.23733,0.07533 -0.48033,0.18033 -0.729,0.315c-0.07088,0.03844 -0.1409,0.07845 -0.21,0.12z"/></g></g></svg>