<svg version="1.1" xmlns="http://www.w3.org/2000/svg" xmlns:xlink="http://www.w3.org/1999/xlink" width="2.52" height="6.67" viewBox="0,0,2.52,6.67"><g transform="translate(-238.354,-176.655)"><g fill="#ffffff" fill-rule="evenodd" stroke="#ffffff" stroke-width="0" stroke-linecap="round" stroke-miterlimit="10"><path d="M239.995,176.655h0.879v6.67h-0.947v-4.048c0.00147,-0.12633 0.00281,-0.25267 0.004,-0.379c0.00116,-0.11533 0.00216,-0.23067 0.003,-0.346c0.00041,-0.059 0.00074,-0.118 0.001,-0.177c0.00067,-0.18933 0.001,-0.416 0.001,-0.68c-0.06897,0.08736 -0.1431,0.1705 -0.222,0.249c-0.01774,0.0176 -0.03574,0.03494 -0.054,0.052c-0.03356,0.03115 -0.06756,0.06182 -0.102,0.092c-0.07133,0.06267 -0.157,0.13533 -0.257,0.218c-0.01697,0.0137 -0.03397,0.02737 -0.051,0.041c-0.03837,0.03163 -0.0767,0.06329 -0.115,0.095c-0.08867,0.07267 -0.158,0.12967 -0.208,0.171c-0.01371,0.01162 -0.02738,0.02328 -0.041,0.035l-0.532,-0.63z"/></g></g></svg>