<svg version="1.1" xmlns="http://www.w3.org/2000/svg" xmlns:xlink="http://www.w3.org/1999/xlink" width="4.53107" height="6.91407" viewBox="0,0,4.53107,6.91407"><g transform="translate(-237.73397,-176.543)"><g fill="#ffffff" fill-rule="evenodd" stroke="#ffffff" stroke-width="0" stroke-linecap="round" stroke-miterlimit="10"><path d="M239.995,176.543c0.462,0 0.84533,0.10567 1.15,0.317c0.30209,0.2091 0.54301,0.4949 0.698,0.828c0.16278,0.3467 0.27428,0.71522 0.331,1.094c0.00033,0.00167 0.00067,0.00333 0.001,0.005c0.04219,0.27967 0.06923,0.56141 0.081,0.844c0.00604,0.13758 0.00904,0.27528 0.009,0.413c0.00105,0.35197 -0.02334,0.70355 -0.073,1.052c-0.02859,0.19811 -0.06697,0.39468 -0.115,0.589c-0.06878,0.28612 -0.1818,0.55975 -0.335,0.811c-0.10157,0.16423 -0.22169,0.31623 -0.358,0.453c-0.22675,0.22536 -0.51344,0.38086 -0.826,0.448c-0.18478,0.04131 -0.37366,0.06144 -0.563,0.06c-0.58933,0 -1.05167,-0.17733 -1.387,-0.532c-0.28636,-0.30562 -0.49911,-0.67262 -0.622,-1.073c-0.02498,-0.07949 -0.047,-0.15987 -0.066,-0.241c-0.09463,-0.40364 -0.15287,-0.81495 -0.174,-1.229c-0.00793,-0.1452 -0.01193,-0.29059 -0.012,-0.436c-0.0013,-0.41309 0.03484,-0.82544 0.108,-1.232c0.02401,-0.13124 0.05236,-0.26164 0.085,-0.391c0.12867,-0.50933 0.35967,-0.93333 0.693,-1.272c0.334,-0.33867 0.79233,-0.508 1.375,-0.508zM239.985,177.324c-0.25235,-0.00172 -0.49415,0.10108 -0.668,0.284c-0.00778,0.00789 -0.01544,0.01589 -0.023,0.024c-0.083,0.08959 -0.15424,0.18939 -0.212,0.297c-0.05533,0.1 -0.10433,0.212 -0.147,0.336c-0.03068,0.08876 -0.05738,0.17885 -0.08,0.27c-0.07733,0.30867 -0.12467,0.66767 -0.142,1.077c-0.00488,0.12127 -0.00721,0.24263 -0.007,0.364c-0.00129,0.34762 0.02277,0.69488 0.072,1.039c0.0403,0.2796 0.10181,0.55573 0.184,0.826c0.03975,0.13583 0.09831,0.26542 0.174,0.385c0.182,0.27867 0.448,0.428 0.798,0.448c0.02664,0.00141 0.05332,0.00207 0.08,0.002c0.30384,0.00608 0.59198,-0.13464 0.774,-0.378c0.07219,-0.09309 0.13358,-0.19407 0.183,-0.301c0.07636,-0.1652 0.13567,-0.33776 0.177,-0.515c0.08333,-0.34267 0.131,-0.75667 0.143,-1.242c0.00199,-0.08165 0.00299,-0.16332 0.003,-0.245c0.00042,-0.20352 -0.00659,-0.40699 -0.021,-0.61c-0.02333,-0.318 -0.066,-0.60033 -0.128,-0.847c-0.0313,-0.1275 -0.07106,-0.25278 -0.119,-0.375c-0.08667,-0.21667 -0.19367,-0.393 -0.321,-0.529c-0.17448,-0.1922 -0.42046,-0.30398 -0.68,-0.309c-0.01333,-0.00056 -0.02666,-0.0009 -0.04,-0.001z"/></g></g></svg>