<svg version="1.1" xmlns="http://www.w3.org/2000/svg" xmlns:xlink="http://www.w3.org/1999/xlink" width="10.98106" height="8.086" viewBox="0,0,10.98106,8.086"><g transform="translate(-234.802,-175.9865)"><g fill="#ffffff" fill-rule="evenodd" stroke="#000000" stroke-width="0" stroke-linecap="round" stroke-miterlimit="10"><path d="M236.771,175.9865h1.055v8.004h-1.137v-4.858c0.00184,-0.15166 0.0035,-0.30333 0.005,-0.455c0.00152,-0.13833 0.00285,-0.27666 0.004,-0.415c0.00042,-0.07067 0.00076,-0.14133 0.001,-0.212c0.00133,-0.228 0.002,-0.5 0.002,-0.816c-0.08298,0.10457 -0.17214,0.20408 -0.267,0.298c-0.02103,0.02098 -0.04236,0.04165 -0.064,0.062c-0.104,0.09733 -0.248,0.22167 -0.432,0.373c-0.01997,0.01637 -0.03997,0.0327 -0.06,0.049c-0.04637,0.03762 -0.0927,0.07529 -0.139,0.113c-0.106,0.08733 -0.189,0.15633 -0.249,0.207c-0.01638,0.01327 -0.03271,0.02661 -0.049,0.04l-0.639,-0.755z"/><path d="M241.101,176.0335h4.442v0.949h-3.369l-0.036,1.488c0.00004,0.02567 -0.00029,0.05134 -0.001,0.077c-0.00333,0.11067 -0.01267,0.28833 -0.028,0.533c0.22387,-0.06237 0.45392,-0.09993 0.686,-0.112c0.06826,-0.0039 0.13662,-0.0059 0.205,-0.006c0.25936,-0.00124 0.51813,0.0249 0.772,0.078c0.23478,0.0493 0.46252,0.12756 0.678,0.233c0.4043,0.19321 0.74474,0.49826 0.981,0.879c0.19278,0.314 0.30924,0.66883 0.34,1.036c0.00817,0.08977 0.01218,0.17986 0.012,0.27c0.00139,0.21807 -0.02278,0.43555 -0.072,0.648c-0.03469,0.14596 -0.08324,0.28828 -0.145,0.425c-0.14336,0.31865 -0.35785,0.60019 -0.627,0.823c-0.19507,0.16152 -0.41143,0.29544 -0.643,0.398c-0.1122,0.05018 -0.22704,0.09424 -0.344,0.132c-0.24816,0.0794 -0.50385,0.13301 -0.763,0.16c-0.1737,0.01878 -0.34829,0.02813 -0.523,0.028c-0.12008,-0.00008 -0.24014,-0.00375 -0.36,-0.011c-0.07647,-0.00453 -0.15283,-0.01086 -0.229,-0.019c-0.182,-0.01933 -0.35867,-0.04833 -0.53,-0.087c-0.172,-0.03933 -0.35567,-0.09233 -0.551,-0.159l0.035,-1.054c0.13545,0.05958 0.27286,0.11461 0.412,0.165c0.05174,0.01875 0.10374,0.03675 0.156,0.054c0.11606,0.03847 0.23386,0.0715 0.353,0.099c0.05899,0.01362 0.11835,0.02563 0.178,0.036c0.17309,0.02957 0.3484,0.04429 0.524,0.044c0.17523,0.00082 0.35011,-0.01593 0.522,-0.05c0.16274,-0.03224 0.32092,-0.08429 0.471,-0.155c0.17628,-0.08195 0.33674,-0.19434 0.474,-0.332c0.07409,-0.07561 0.14011,-0.15873 0.197,-0.248c0.16,-0.25 0.24,-0.52933 0.24,-0.838c0.00084,-0.13746 -0.01528,-0.27449 -0.048,-0.408c-0.02216,-0.08944 -0.05298,-0.17652 -0.092,-0.26c-0.094,-0.19933 -0.23067,-0.37133 -0.41,-0.516c-0.13936,-0.11091 -0.29481,-0.19993 -0.461,-0.264c-0.0584,-0.02297 -0.11779,-0.04332 -0.178,-0.061c-0.16038,-0.04637 -0.32477,-0.07751 -0.491,-0.093c-0.10769,-0.01026 -0.21582,-0.01527 -0.324,-0.015c-0.26672,0.00118 -0.53267,0.02865 -0.794,0.082c-0.23937,0.04855 -0.47523,0.11302 -0.706,0.193z"/></g></g></svg>