<svg version="1.1" xmlns="http://www.w3.org/2000/svg" xmlns:xlink="http://www.w3.org/1999/xlink" width="11.391" height="8.004" viewBox="0,0,11.391,8.004"><g transform="translate(-234.802,-175.9865)"><g fill="#ffffff" fill-rule="evenodd" stroke="#000000" stroke-width="0" stroke-linecap="round" stroke-miterlimit="10"><path d="M236.771,175.9865h1.055v8.004h-1.137v-4.858c0.00184,-0.15166 0.0035,-0.30333 0.005,-0.455c0.00152,-0.13833 0.00285,-0.27666 0.004,-0.415c0.00042,-0.07067 0.00076,-0.14133 0.001,-0.212c0.00133,-0.228 0.002,-0.5 0.002,-0.816c-0.08298,0.10457 -0.17214,0.20408 -0.267,0.298c-0.02103,0.02098 -0.04236,0.04165 -0.064,0.062c-0.104,0.09733 -0.248,0.22167 -0.432,0.373c-0.01997,0.01637 -0.03997,0.0327 -0.06,0.049c-0.04637,0.03762 -0.0927,0.07529 -0.139,0.113c-0.106,0.08733 -0.189,0.15633 -0.249,0.207c-0.01638,0.01327 -0.03271,0.02661 -0.049,0.04l-0.639,-0.755z"/><path d="M243.492,175.9865h1.646v5.303h1.055v0.949h-1.055v1.752h-1.142v-1.752h-3.744v-0.949zM241.658,181.2895h2.338v-3.164c0.00011,-0.06469 0.00144,-0.12936 0.004,-0.194c0.00533,-0.14533 0.01667,-0.31567 0.034,-0.511c0.00798,-0.0944 0.01665,-0.18873 0.026,-0.283c0.00742,-0.07332 0.01476,-0.14666 0.022,-0.22c0.026,-0.26067 0.04167,-0.433 0.047,-0.517c0.00075,-0.00899 0.00141,-0.01799 0.002,-0.027c-0.0643,0.19173 -0.13771,0.38028 -0.22,0.565c-0.02347,0.0524 -0.04781,0.10441 -0.073,0.156c-0.082,0.16933 -0.19233,0.38 -0.331,0.632c-0.16701,0.30206 -0.33769,0.60209 -0.512,0.9c-0.0256,0.04371 -0.05126,0.08738 -0.077,0.131l-0.768,1.295c-0.09733,0.168 -0.186,0.32233 -0.266,0.463c-0.03882,0.0683 -0.07815,0.1363 -0.118,0.204c-0.03746,0.06332 -0.07546,0.12633 -0.114,0.189c-0.074,0.12067 -0.16,0.24767 -0.258,0.381z"/></g></g></svg>