<svg version="1.1" xmlns="http://www.w3.org/2000/svg" xmlns:xlink="http://www.w3.org/1999/xlink" width="10.84009" height="8.21506" viewBox="0,0,10.84009,8.21506"><g transform="translate(-234.802,-175.8805)"><g fill="#ffffff" fill-rule="evenodd" stroke="#000000" stroke-width="0" stroke-linecap="round" stroke-miterlimit="10"><path d="M236.771,175.9865h1.055v8.004h-1.137v-4.858c0.00184,-0.15166 0.0035,-0.30333 0.005,-0.455c0.00152,-0.13833 0.00285,-0.27666 0.004,-0.415c0.00042,-0.07067 0.00076,-0.14133 0.001,-0.212c0.00133,-0.228 0.002,-0.5 0.002,-0.816c-0.08298,0.10457 -0.17214,0.20408 -0.267,0.298c-0.02103,0.02098 -0.04236,0.04165 -0.064,0.062c-0.104,0.09733 -0.248,0.22167 -0.432,0.373c-0.01997,0.01637 -0.03997,0.0327 -0.06,0.049c-0.04637,0.03762 -0.0927,0.07529 -0.139,0.113c-0.106,0.08733 -0.189,0.15633 -0.249,0.207c-0.01638,0.01327 -0.03271,0.02661 -0.049,0.04l-0.639,-0.755z"/><path d="M240.961,177.2105l-0.082,-0.984c0.30545,-0.1125 0.61992,-0.19881 0.94,-0.258c0.24712,-0.04474 0.49706,-0.07214 0.748,-0.082c0.08761,-0.00385 0.1753,-0.00585 0.263,-0.006c0.76133,0 1.40567,0.171 1.933,0.513c0.42762,0.27178 0.70924,0.72251 0.766,1.226c0.01721,0.12291 0.02557,0.24689 0.025,0.371c0.00795,0.4569 -0.17167,0.8971 -0.497,1.218c-0.01087,0.01113 -0.02187,0.02213 -0.033,0.033c-0.2651,0.25341 -0.59363,0.43064 -0.951,0.513c-0.14291,0.03483 -0.28837,0.05824 -0.435,0.07c0.19146,0.00995 0.38125,0.0408 0.566,0.092c0.17111,0.04802 0.33542,0.11758 0.489,0.207c0.29383,0.1687 0.5359,0.41458 0.7,0.711c0.13569,0.24669 0.21749,0.51936 0.24,0.8c0.00621,0.07216 0.00922,0.14457 0.009,0.217c0.00226,0.24679 -0.03834,0.4921 -0.12,0.725c-0.05883,0.1641 -0.13956,0.31951 -0.24,0.462c-0.24,0.34133 -0.58067,0.603 -1.022,0.785c-0.2439,0.09846 -0.4982,0.16891 -0.758,0.21c-0.23333,0.03867 -0.48267,0.05933 -0.748,0.062c-0.01767,0.00008 -0.03533,0.00008 -0.053,0c-0.69933,0 -1.387,-0.10733 -2.063,-0.322l0.047,-1.066c0.14118,0.05939 0.2839,0.11508 0.428,0.167c0.14133,0.05133 0.27533,0.095 0.402,0.131c0.0725,0.02058 0.14552,0.03925 0.219,0.056c0.29786,0.06818 0.60243,0.10273 0.908,0.103c0.18061,0.00082 0.36073,-0.01864 0.537,-0.058c0.12842,-0.029 0.25369,-0.07054 0.374,-0.124c0.13358,-0.05848 0.25896,-0.13412 0.373,-0.225c0.10012,-0.08042 0.18862,-0.17431 0.263,-0.279c0.15099,-0.2099 0.2312,-0.46244 0.229,-0.721c0.00189,-0.15331 -0.01935,-0.30603 -0.063,-0.453c-0.096,-0.30867 -0.30133,-0.53567 -0.616,-0.681c-0.00632,-0.00271 -0.01265,-0.00538 -0.019,-0.008c-0.25934,-0.11397 -0.53172,-0.19558 -0.811,-0.243c-0.26,-0.04533 -0.53833,-0.068 -0.835,-0.068c-0.06301,0.00004 -0.12602,0.00104 -0.189,0.003c-0.06,0.002 -0.11667,0.00467 -0.17,0.008c-0.00333,0.00033 -0.00667,0.00066 -0.01,0.001v-0.973c0.3045,0.00075 0.60886,-0.01327 0.912,-0.042c0.10423,-0.01033 0.20825,-0.02267 0.312,-0.037c0.22993,-0.02988 0.45469,-0.09112 0.668,-0.182c0.12394,-0.05343 0.24277,-0.11803 0.355,-0.193c0.29467,-0.19733 0.442,-0.48933 0.442,-0.876c0,-0.234 -0.06833,-0.442 -0.205,-0.624c-0.13667,-0.18133 -0.328,-0.323 -0.574,-0.425c-0.15275,-0.06201 -0.31266,-0.10468 -0.476,-0.127c-0.12192,-0.01705 -0.2449,-0.02541 -0.368,-0.025c-0.35585,0.00178 -0.71002,0.04883 -1.054,0.14c-0.25786,0.06775 -0.51052,0.15398 -0.756,0.258z"/></g></g></svg>