<svg version="1.1" xmlns="http://www.w3.org/2000/svg" xmlns:xlink="http://www.w3.org/1999/xlink" width="11.12709" height="8.2672" viewBox="0,0,11.12709,8.2672"><g transform="translate(-234.802,-175.86949)"><g fill="#ffffff" fill-rule="evenodd" stroke="#000000" stroke-width="0" stroke-linecap="round" stroke-miterlimit="10"><path d="M236.771,175.9865h1.055v8.004h-1.137v-4.858c0.00184,-0.15166 0.0035,-0.30333 0.005,-0.455c0.00152,-0.13833 0.00285,-0.27666 0.004,-0.415c0.00042,-0.07067 0.00076,-0.14133 0.001,-0.212c0.00133,-0.228 0.002,-0.5 0.002,-0.816c-0.08298,0.10457 -0.17214,0.20408 -0.267,0.298c-0.02103,0.02098 -0.04236,0.04165 -0.064,0.062c-0.104,0.09733 -0.248,0.22167 -0.432,0.373c-0.01997,0.01637 -0.03997,0.0327 -0.06,0.049c-0.04637,0.03762 -0.0927,0.07529 -0.139,0.113c-0.106,0.08733 -0.189,0.15633 -0.249,0.207c-0.01638,0.01327 -0.03271,0.02661 -0.049,0.04l-0.639,-0.755z"/><path d="M245.519,176.1215l-0.14,1.019c-0.34144,-0.16365 -0.70721,-0.27071 -1.083,-0.317c-0.12677,-0.01519 -0.25432,-0.02287 -0.382,-0.023c-0.163,-0.00094 -0.32562,0.01582 -0.485,0.05c-0.18701,0.03986 -0.36589,0.11121 -0.529,0.211c-0.28133,0.174 -0.506,0.40433 -0.674,0.691c-0.13954,0.24081 -0.24839,0.49815 -0.324,0.766c-0.01869,0.06455 -0.0357,0.12957 -0.051,0.195c-0.08197,0.35279 -0.12323,0.71381 -0.123,1.076c0.1211,-0.20394 0.28736,-0.37738 0.486,-0.507c0.07893,-0.05273 0.16146,-0.09985 0.247,-0.141c0.3032,-0.14472 0.63319,-0.22475 0.969,-0.235c0.03632,-0.00137 0.07266,-0.00203 0.109,-0.002c0.26434,-0.00194 0.5273,0.03823 0.779,0.119c0.15973,0.05219 0.31304,0.12231 0.457,0.209c0.36355,0.21879 0.65813,0.53555 0.85,0.914c0.16722,0.32504 0.26721,0.68045 0.294,1.045c0.00695,0.08883 0.01028,0.1779 0.01,0.267c0.00207,0.27675 -0.03291,0.55253 -0.104,0.82c-0.05369,0.19675 -0.12986,0.38667 -0.227,0.566c-0.22067,0.40867 -0.528,0.726 -0.922,0.952c-0.35109,0.20017 -0.74435,0.31493 -1.148,0.335c-0.06094,0.00347 -0.12196,0.00514 -0.183,0.005c-0.29657,0.00345 -0.59184,-0.03975 -0.875,-0.128c-0.47192,-0.15233 -0.87879,-0.45915 -1.155,-0.871c-0.191,-0.28178 -0.33802,-0.59099 -0.436,-0.917c-0.172,-0.54733 -0.258,-1.20533 -0.258,-1.974c0,-0.94933 0.123,-1.75133 0.369,-2.406c0.246,-0.654 0.61233,-1.146 1.099,-1.476c0.486,-0.33 1.08267,-0.495 1.79,-0.495c0.55637,-0.00083 1.10954,0.08417 1.64,0.252zM243.299,179.8355c-0.22391,-0.00312 -0.44512,0.04909 -0.644,0.152c-0.14509,0.07767 -0.2754,0.18023 -0.385,0.303c-0.2244,0.24806 -0.36383,0.56124 -0.398,0.894c-0.00999,0.08329 -0.01499,0.16711 -0.015,0.251c-0.00165,0.20362 0.02459,0.4065 0.078,0.603c0.06618,0.24115 0.18351,0.46523 0.344,0.657c0.10958,0.13383 0.24195,0.24724 0.391,0.335c0.19839,0.11344 0.42349,0.17179 0.652,0.169c0.26217,0.00315 0.51926,-0.07244 0.738,-0.217c0.19408,-0.12909 0.35425,-0.30299 0.467,-0.507c0.01727,-0.03083 0.03361,-0.06218 0.049,-0.094c0.12467,-0.25533 0.187,-0.54333 0.187,-0.864c0.00123,-0.17663 -0.01994,-0.3527 -0.063,-0.524c-0.03047,-0.11838 -0.07303,-0.23332 -0.127,-0.343c-0.06963,-0.14443 -0.16103,-0.27731 -0.271,-0.394c-0.07492,-0.07857 -0.15883,-0.14805 -0.25,-0.207c-0.20781,-0.13314 -0.44826,-0.20649 -0.695,-0.212c-0.01932,-0.00101 -0.03866,-0.00168 -0.058,-0.002z"/></g></g></svg>