<svg version="1.1" xmlns="http://www.w3.org/2000/svg" xmlns:xlink="http://www.w3.org/1999/xlink" width="10.189" height="8.004" viewBox="0,0,10.189,8.004"><g transform="translate(-234.3345,-175.9865)"><g fill="#ffffff" fill-rule="evenodd" stroke="#000000" stroke-width="0" stroke-linecap="round" stroke-miterlimit="10"><path d="M234.3345,183.9905v-8.004h1.898c0.37533,0 0.62533,0.003 0.75,0.009c0.06543,0.00318 0.13078,0.00784 0.196,0.014c0.07148,0.00664 0.14283,0.01464 0.214,0.024c0.22771,0.02919 0.45123,0.0849 0.666,0.166c0.28754,0.10814 0.5482,0.27736 0.764,0.496c0.33317,0.33803 0.5218,0.7924 0.526,1.267c0.00073,0.02499 0.00106,0.05 0.001,0.075c0.00163,0.18061 -0.01954,0.36069 -0.063,0.536c-0.06493,0.26363 -0.19885,0.50523 -0.388,0.7c-0.17316,0.17503 -0.37553,0.31852 -0.598,0.424c-0.17,0.08267 -0.35867,0.15067 -0.566,0.204c-0.02991,0.0077 -0.05991,0.01503 -0.09,0.022c0.20919,0.02766 0.4154,0.07453 0.616,0.14c0.24,0.08 0.452,0.186 0.636,0.318c0.0555,0.03989 0.1089,0.08261 0.16,0.128c0.23499,0.21079 0.39739,0.49043 0.464,0.799c0.0398,0.17416 0.05927,0.35235 0.058,0.531c0,0.39067 -0.09567,0.74733 -0.287,1.07c-0.19199,0.32241 -0.47006,0.58491 -0.803,0.758c-0.1394,0.07417 -0.28621,0.1335 -0.438,0.177c-0.10553,0.03041 -0.2127,0.05478 -0.321,0.073c-0.19267,0.03267 -0.424,0.05433 -0.694,0.065c-0.1406,0.00546 -0.28129,0.00813 -0.422,0.008zM236.0745,180.3285h-0.598v2.689h0.873c0.21844,0.00094 0.43666,-0.01376 0.653,-0.044c0.23,-0.03333 0.44167,-0.08533 0.635,-0.156c0.05576,-0.02041 0.11079,-0.04276 0.165,-0.067c0.39867,-0.17733 0.598,-0.516 0.598,-1.016c0.00141,-0.14166 -0.01403,-0.28299 -0.046,-0.421c-0.08533,-0.352 -0.28967,-0.59267 -0.613,-0.722c-0.43933,-0.17533 -0.995,-0.263 -1.667,-0.263zM236.0625,176.9705h-0.586v2.426h0.815c0.21842,0.00133 0.43665,-0.01304 0.653,-0.043c0.51933,-0.07533 0.87933,-0.25167 1.08,-0.529c0.13014,-0.18785 0.19641,-0.41259 0.189,-0.641c0.00049,-0.09675 -0.00923,-0.19329 -0.029,-0.288c-0.02667,-0.126 -0.07267,-0.23733 -0.138,-0.334c-0.012,-0.01781 -0.02467,-0.03516 -0.038,-0.052c-0.13685,-0.17189 -0.32008,-0.30099 -0.528,-0.372c-0.18082,-0.06473 -0.36832,-0.10901 -0.559,-0.132c-0.02728,-0.00314 -0.05462,-0.00581 -0.082,-0.008c-0.08622,-0.00697 -0.17257,-0.0123 -0.259,-0.016c-0.07733,-0.004 -0.15933,-0.00667 -0.246,-0.008c-0.09065,-0.0019 -0.18133,-0.0029 -0.272,-0.003z"/><path d="M243.4685,175.9865h1.055v8.004h-1.137v-4.858c0.00217,-0.15166 0.00417,-0.30333 0.006,-0.455c0.00119,-0.13833 0.00219,-0.27667 0.003,-0.415c0.00076,-0.07067 0.00142,-0.14133 0.002,-0.212c0.00067,-0.228 0.001,-0.5 0.001,-0.816c-0.08298,0.10457 -0.17214,0.20408 -0.267,0.298c-0.02103,0.02098 -0.04236,0.04165 -0.064,0.062c-0.104,0.09733 -0.248,0.22167 -0.432,0.373c-0.01997,0.01637 -0.03997,0.0327 -0.06,0.049c-0.04637,0.03762 -0.0927,0.07529 -0.139,0.113c-0.106,0.08733 -0.189,0.15633 -0.249,0.207c-0.01638,0.01327 -0.03271,0.02661 -0.049,0.04l-0.638,-0.755z"/></g></g></svg>