<svg version="1.1" xmlns="http://www.w3.org/2000/svg" xmlns:xlink="http://www.w3.org/1999/xlink" width="5.30806" height="8.2672" viewBox="0,0,5.30806,8.2672"><g transform="translate(-237.399,-175.86949)"><g fill="#ffffff" fill-rule="evenodd" stroke="#000000" stroke-width="0" stroke-linecap="round" stroke-miterlimit="10"><path d="M242.297,176.1215l-0.141,1.019c-0.34113,-0.16355 -0.70655,-0.27061 -1.082,-0.317c-0.12677,-0.01519 -0.25432,-0.02287 -0.382,-0.023c-0.16333,-0.00102 -0.32629,0.01575 -0.486,0.05c-0.18666,0.03997 -0.3652,0.11132 -0.528,0.211c-0.28133,0.174 -0.506,0.40433 -0.674,0.691c-0.13954,0.24081 -0.24839,0.49815 -0.324,0.766c-0.01869,0.06455 -0.0357,0.12957 -0.051,0.195c-0.08197,0.35279 -0.12323,0.71381 -0.123,1.076c0.12082,-0.20383 0.28673,-0.37727 0.485,-0.507c0.07893,-0.05273 0.16146,-0.09985 0.247,-0.141c0.3032,-0.14472 0.63319,-0.22475 0.969,-0.235c0.03665,-0.00138 0.07332,-0.00205 0.11,-0.002c0.264,-0.00183 0.52662,0.03834 0.778,0.119c0.16008,0.05212 0.31373,0.12224 0.458,0.209c0.36318,0.21894 0.6574,0.53568 0.849,0.914c0.16722,0.32504 0.26721,0.68045 0.294,1.045c0.00728,0.08881 0.01095,0.17789 0.011,0.267c0.00174,0.27679 -0.03357,0.55258 -0.105,0.82c-0.05337,0.19671 -0.12921,0.38663 -0.226,0.566c-0.22067,0.40867 -0.52833,0.726 -0.923,0.952c-0.35109,0.20017 -0.74435,0.31493 -1.148,0.335c-0.0606,0.00345 -0.1213,0.00512 -0.182,0.005c-0.29657,0.00345 -0.59184,-0.03975 -0.875,-0.128c-0.47192,-0.15233 -0.87879,-0.45915 -1.155,-0.871c-0.19135,-0.28172 -0.33871,-0.59093 -0.437,-0.917c-0.17133,-0.54733 -0.257,-1.20533 -0.257,-1.974c0,-0.94933 0.123,-1.75133 0.369,-2.406c0.246,-0.654 0.612,-1.146 1.098,-1.476c0.48667,-0.33 1.08333,-0.495 1.79,-0.495c0.55671,-0.00093 1.11022,0.08407 1.641,0.252zM240.076,179.8355c-0.22357,-0.00296 -0.44442,0.04925 -0.643,0.152c-0.14509,0.07767 -0.2754,0.18023 -0.385,0.303c-0.22477,0.24793 -0.36455,0.56113 -0.399,0.894c-0.00965,0.08331 -0.01433,0.16713 -0.014,0.251c-0.00165,0.20362 0.02459,0.4065 0.078,0.603c0.06618,0.24115 0.18351,0.46523 0.344,0.657c0.10958,0.13383 0.24195,0.24724 0.391,0.335c0.19839,0.11344 0.42349,0.17179 0.652,0.169c0.26217,0.00315 0.51926,-0.07244 0.738,-0.217c0.19408,-0.12909 0.35425,-0.30299 0.467,-0.507c0.01727,-0.03083 0.03361,-0.06218 0.049,-0.094c0.12467,-0.25533 0.187,-0.54333 0.187,-0.864c0.0009,-0.17667 -0.02061,-0.35274 -0.064,-0.524c-0.03015,-0.11834 -0.07237,-0.23328 -0.126,-0.343c-0.06994,-0.1445 -0.16167,-0.27738 -0.272,-0.394c-0.07492,-0.07857 -0.15883,-0.14805 -0.25,-0.207c-0.20752,-0.13296 -0.4476,-0.2063 -0.694,-0.212c-0.01965,-0.00102 -0.03932,-0.00169 -0.059,-0.002z"/></g></g></svg>