<svg version="1.1" xmlns="http://www.w3.org/2000/svg" xmlns:xlink="http://www.w3.org/1999/xlink" width="5.00409" height="8.21506" viewBox="0,0,5.00409,8.21506"><g transform="translate(-237.416,-175.8805)"><g fill="#ffffff" fill-rule="evenodd" stroke="#000000" stroke-width="0" stroke-linecap="round" stroke-miterlimit="10"><path d="M237.738,177.2105l-0.082,-0.984c0.30577,-0.11256 0.62058,-0.19887 0.941,-0.258c0.24679,-0.04469 0.49639,-0.07209 0.747,-0.082c0.08795,-0.00387 0.17597,-0.00587 0.264,-0.006c0.76133,0 1.40567,0.171 1.933,0.513c0.42762,0.27178 0.70924,0.72251 0.766,1.226c0.01721,0.12291 0.02557,0.24689 0.025,0.371c0.00769,0.45705 -0.1723,0.89727 -0.498,1.218c-0.01054,0.01112 -0.02121,0.02212 -0.032,0.033c-0.2651,0.25341 -0.59363,0.43064 -0.951,0.513c-0.14291,0.03483 -0.28837,0.05824 -0.435,0.07c0.19146,0.00995 0.38125,0.0408 0.566,0.092c0.17111,0.04802 0.33542,0.11758 0.489,0.207c0.29383,0.1687 0.5359,0.41458 0.7,0.711c0.13569,0.24669 0.21749,0.51936 0.24,0.8c0.00621,0.07216 0.00922,0.14457 0.009,0.217c0.00226,0.24679 -0.03834,0.4921 -0.12,0.725c-0.05883,0.1641 -0.13956,0.31951 -0.24,0.462c-0.24067,0.34133 -0.58167,0.603 -1.023,0.785c-0.24358,0.09839 -0.49754,0.16884 -0.757,0.21c-0.234,0.03867 -0.48333,0.05933 -0.748,0.062c-0.01767,0.00008 -0.03533,0.00008 -0.053,0c-0.69933,0 -1.387,-0.10733 -2.063,-0.322l0.047,-1.066c0.14118,0.05939 0.2839,0.11508 0.428,0.167c0.14133,0.05133 0.275,0.095 0.401,0.131c0.07283,0.02059 0.14619,0.03927 0.22,0.056c0.29786,0.06818 0.60243,0.10273 0.908,0.103c0.18027,0.00074 0.36006,-0.01871 0.536,-0.058c0.12876,-0.02894 0.25437,-0.07047 0.375,-0.124c0.13358,-0.05848 0.25896,-0.13412 0.373,-0.225c0.10012,-0.08042 0.18862,-0.17431 0.263,-0.279c0.15063,-0.21003 0.23049,-0.46255 0.228,-0.721c0.00189,-0.15331 -0.01935,-0.30603 -0.063,-0.453c-0.09533,-0.30867 -0.30033,-0.53567 -0.615,-0.681c-0.00632,-0.00271 -0.01265,-0.00538 -0.019,-0.008c-0.25966,-0.11405 -0.53238,-0.19566 -0.812,-0.243c-0.25933,-0.04533 -0.53733,-0.068 -0.834,-0.068c-0.06301,0.00004 -0.12602,0.00104 -0.189,0.003c-0.06,0.002 -0.11667,0.00467 -0.17,0.008c-0.00333,0.00033 -0.00667,0.00066 -0.01,0.001v-0.973c0.30417,0.00071 0.60819,-0.0133 0.911,-0.042c0.10456,-0.01032 0.20891,-0.02265 0.313,-0.037c0.22993,-0.02988 0.45469,-0.09112 0.668,-0.182c0.12394,-0.05343 0.24277,-0.11803 0.355,-0.193c0.29467,-0.19733 0.442,-0.48933 0.442,-0.876c0,-0.234 -0.06833,-0.442 -0.205,-0.624c-0.13667,-0.18133 -0.328,-0.323 -0.574,-0.425c-0.15275,-0.06201 -0.31266,-0.10468 -0.476,-0.127c-0.12192,-0.01705 -0.2449,-0.02541 -0.368,-0.025c-0.35585,0.00178 -0.71002,0.04883 -1.054,0.14c-0.2582,0.06771 -0.51119,0.15393 -0.757,0.258z"/></g></g></svg>