<svg version="1.1" xmlns="http://www.w3.org/2000/svg" xmlns:xlink="http://www.w3.org/1999/xlink" width="4.4241" height="6.88919" viewBox="0,0,4.4241,6.88919"><g transform="translate(-237.83194,-176.55795)"><g fill="#ffffff" fill-rule="evenodd" stroke="#ffffff" stroke-width="0" stroke-linecap="round" stroke-miterlimit="10"><path d="M241.914,176.768l-0.117,0.849c-0.2847,-0.13637 -0.58968,-0.22552 -0.903,-0.264c-0.10554,-0.01259 -0.21172,-0.01893 -0.318,-0.019c-0.13579,-0.00066 -0.27125,0.01342 -0.404,0.042c-0.15585,0.03293 -0.30498,0.0921 -0.441,0.175c-0.234,0.14533 -0.421,0.33766 -0.561,0.577c-0.11659,0.20053 -0.20764,0.41486 -0.271,0.638c-0.0154,0.05363 -0.0294,0.10765 -0.042,0.162c-0.068,0.29467 -0.102,0.59334 -0.102,0.896c0.13333,-0.22734 0.33667,-0.407 0.61,-0.539c0.25281,-0.12071 0.52798,-0.18746 0.808,-0.196c0.02999,-0.00124 0.05999,-0.00191 0.09,-0.002c0.22021,-0.00165 0.43929,0.03177 0.649,0.099c0.13351,0.04336 0.26166,0.10174 0.382,0.174c0.30286,0.18249 0.54823,0.44656 0.708,0.762c0.16933,0.32533 0.254,0.69 0.254,1.094c0.00126,0.23057 -0.02833,0.46027 -0.088,0.683c-0.04434,0.16403 -0.10743,0.3224 -0.188,0.472c-0.184,0.34 -0.44033,0.60433 -0.769,0.793c-0.2927,0.1668 -0.62053,0.26237 -0.957,0.279c-0.05061,0.00283 -0.1013,0.00416 -0.152,0.004c-0.24711,0.00276 -0.49311,-0.03336 -0.729,-0.107c-0.39334,-0.12661 -0.73257,-0.382 -0.963,-0.725c-0.27534,-0.39667 -0.45234,-0.92 -0.531,-1.57c-0.03249,-0.27881 -0.04818,-0.55931 -0.047,-0.84c-0.00098,-0.291 0.01471,-0.58181 0.047,-0.871c0.04866,-0.42334 0.13534,-0.801 0.26,-1.133c0.08151,-0.22123 0.18892,-0.43203 0.32,-0.628c0.15833,-0.23721 0.36065,-0.44191 0.596,-0.603c0.26933,-0.18002 0.57305,-0.30226 0.892,-0.359c0.19791,-0.03634 0.39879,-0.05408 0.6,-0.053c0.46866,0 0.92433,0.07 1.367,0.21zM240.063,179.863c-0.1864,-0.00241 -0.3705,0.04122 -0.536,0.127c-0.12092,0.06456 -0.22958,0.14986 -0.321,0.252c-0.18713,0.20667 -0.30343,0.46767 -0.332,0.745c-0.00815,0.06937 -0.01216,0.13916 -0.012,0.209c-0.00143,0.16985 0.02044,0.3391 0.065,0.503c0.05533,0.20081 0.15321,0.38736 0.287,0.547c0.09129,0.11184 0.20166,0.20664 0.326,0.28c0.1653,0.0942 0.35276,0.14253 0.543,0.14c0.2185,0.00261 0.43275,-0.06044 0.615,-0.181c0.16161,-0.10746 0.29502,-0.2522 0.389,-0.422c0.01444,-0.02559 0.02811,-0.05159 0.041,-0.078c0.07905,-0.16404 0.12848,-0.34076 0.146,-0.522c0.00677,-0.06578 0.0101,-0.13187 0.01,-0.198c0,-0.26734 -0.053,-0.50833 -0.159,-0.723c-0.10533,-0.21466 -0.25,-0.38134 -0.434,-0.5c-0.17299,-0.11139 -0.37332,-0.17298 -0.579,-0.178c-0.01632,-0.00063 -0.03266,-0.00096 -0.049,-0.001z"/></g></g></svg>