<svg version="1.1" xmlns="http://www.w3.org/2000/svg" xmlns:xlink="http://www.w3.org/1999/xlink" width="23.57206" height="8.27908" viewBox="0,0,23.57206,8.27908"><g transform="translate(-228.5015,-175.8695)"><g fill="#ffffff" fill-rule="evenodd" stroke="#000000" stroke-width="0" stroke-linecap="round" stroke-miterlimit="10"><path d="M233.7685,175.9865h1.131v8.004h-1.476l-2.532,-4.342c-0.40267,-0.712 -0.69033,-1.233 -0.863,-1.563c-0.01409,-0.02695 -0.02809,-0.05395 -0.042,-0.081c-0.09628,-0.18805 -0.18273,-0.38098 -0.259,-0.578c-0.0671,-0.17315 -0.12813,-0.34859 -0.183,-0.526c0.066,0.87867 0.099,1.88633 0.099,3.023v4.067h-1.142v-8.004h1.558l2.725,4.717c0.14517,0.25114 0.28586,0.50485 0.422,0.761c0.262,0.49667 0.46233,0.927 0.601,1.291c0.02979,0.07903 0.05779,0.15871 0.084,0.239c-0.04133,-0.43733 -0.06833,-0.75733 -0.081,-0.96c-0.00273,-0.03931 -0.00506,-0.07864 -0.007,-0.118c-0.00733,-0.31267 -0.014,-0.62133 -0.02,-0.926c-0.00099,-0.05333 -0.00199,-0.10667 -0.003,-0.16c-0.004,-0.21267 -0.007,-0.35067 -0.009,-0.414c-0.002,-0.07333 -0.003,-0.24733 -0.003,-0.522c0,-0.01967 0,-0.03933 0,-0.059z"/><path d="M242.0275,182.6665c-0.24736,0.45971 -0.62152,0.83873 -1.078,1.092c-0.46267,0.26 -0.98333,0.39 -1.562,0.39c-0.33135,0.00236 -0.66102,-0.04724 -0.977,-0.147c-0.19444,-0.06263 -0.38152,-0.14612 -0.558,-0.249c-0.45166,-0.26231 -0.82091,-0.64577 -1.066,-1.107c-0.24755,-0.45911 -0.38,-0.97144 -0.386,-1.493c-0.00061,-0.02666 -0.00095,-0.05333 -0.001,-0.08c0,-0.45333 0.07333,-0.86833 0.22,-1.245c0.14018,-0.36738 0.35349,-0.70249 0.627,-0.985c0.27229,-0.27963 0.59948,-0.49991 0.961,-0.647c0.35204,-0.14393 0.72774,-0.22124 1.108,-0.228c0.028,-0.00067 0.056,-0.001 0.084,-0.001c0.31007,-0.00138 0.61879,0.04104 0.917,0.126c0.09622,0.0276 0.191,0.05997 0.284,0.097c0.36432,0.14373 0.69393,0.36325 0.967,0.644c0.27591,0.28523 0.48943,0.62477 0.627,0.997c0.12264,0.32878 0.19381,0.67451 0.211,1.025c0.00397,0.07227 0.00597,0.14463 0.006,0.217c0.00181,0.31805 -0.03922,0.6349 -0.122,0.942c-0.06177,0.22675 -0.14969,0.44556 -0.262,0.652zM241.2455,181.3665c-0.02467,0.29607 -0.10223,0.58531 -0.229,0.854c-0.02923,0.06176 -0.06127,0.12216 -0.096,0.181c-0.1402,0.241 -0.33383,0.44661 -0.566,0.601c-0.27936,0.1852 -0.60784,0.28239 -0.943,0.279c-0.01134,-0.00024 -0.02267,-0.00057 -0.034,-0.001c-0.33063,-0.00091 -0.65382,-0.09821 -0.93,-0.28c-0.12599,-0.0835 -0.24062,-0.183 -0.341,-0.296c-0.13074,-0.1487 -0.2389,-0.31582 -0.321,-0.496c-0.07113,-0.15355 -0.12609,-0.31408 -0.164,-0.479c-0.04976,-0.21949 -0.07425,-0.44395 -0.073,-0.669c-0.00061,-0.17321 0.01344,-0.34616 0.042,-0.517c0.0621,-0.39838 0.23071,-0.77257 0.488,-1.083c0.02985,-0.03568 0.06086,-0.07037 0.093,-0.104c0.31933,-0.34448 0.77035,-0.53653 1.24,-0.528c0.01633,-0.00021 0.03267,-0.00021 0.049,0c0.23783,0.00442 0.47188,0.06038 0.686,0.164c0.22677,0.11108 0.42671,0.27008 0.586,0.466c0.166,0.20067 0.295,0.44367 0.387,0.729c0.01493,0.04696 0.0286,0.09431 0.041,0.142c0.06527,0.25007 0.09788,0.50755 0.097,0.766c0.00006,0.09047 -0.00395,0.18089 -0.012,0.271z"/><path d="M243.8415,182.7075h1.283v1.283h-1.283z"/><path d="M251.2295,180.1615c0.25903,0.19337 0.47127,0.44252 0.621,0.729c0.14867,0.28533 0.223,0.60567 0.223,0.961c0.00158,0.21309 -0.02601,0.42539 -0.082,0.631c-0.05999,0.21728 -0.15819,0.42214 -0.29,0.605c-0.248,0.344 -0.576,0.605 -0.984,0.783c-0.40867,0.17733 -0.84533,0.266 -1.31,0.266c-0.46217,-0.00009 -0.92064,-0.08237 -1.354,-0.243c-0.27748,-0.09972 -0.53637,-0.24505 -0.766,-0.43c-0.1161,-0.0946 -0.22322,-0.19971 -0.32,-0.314c-0.24866,-0.29367 -0.39565,-0.6599 -0.419,-1.044c-0.00428,-0.05923 -0.00629,-0.11861 -0.006,-0.178c-0.00104,-0.18354 0.02011,-0.36654 0.063,-0.545c0.03568,-0.14724 0.08907,-0.28961 0.159,-0.424c0.14867,-0.28333 0.35567,-0.52667 0.621,-0.73c0.23489,-0.17839 0.49291,-0.32405 0.767,-0.433c0.04697,-0.01863 0.09431,-0.0363 0.142,-0.053c-0.46867,-0.102 -0.84767,-0.33167 -1.137,-0.689c-0.28933,-0.35733 -0.434,-0.77233 -0.434,-1.245c-0.00107,-0.16911 0.02216,-0.3375 0.069,-0.5c0.03621,-0.12339 0.08796,-0.24167 0.154,-0.352c0.14867,-0.24867 0.346,-0.453 0.592,-0.613c0.25129,-0.16229 0.52719,-0.28285 0.817,-0.357c0.2974,-0.07787 0.60357,-0.11719 0.911,-0.117c0.30043,0.00029 0.59968,0.03757 0.891,0.111c0.28986,0.07141 0.5666,0.18818 0.82,0.346c0.24486,0.15081 0.45156,0.35615 0.604,0.6c0.12426,0.20108 0.19961,0.42851 0.22,0.664c0.00562,0.06083 0.00829,0.12191 0.008,0.183c0.00742,0.42031 -0.13952,0.82875 -0.413,1.148c-0.20461,0.23897 -0.44884,0.44092 -0.722,0.597c-0.11414,0.06579 -0.232,0.12489 -0.353,0.177c0.26554,0.08385 0.5185,0.20327 0.752,0.355c0.05323,0.03523 0.10526,0.07226 0.156,0.111zM250.3975,180.8875c0.19105,0.14478 0.33621,0.34167 0.418,0.567c0.05518,0.1598 0.08225,0.32796 0.08,0.497c0.00012,0.02 -0.00022,0.04001 -0.001,0.06c-0.00672,0.21835 -0.07999,0.42944 -0.21,0.605c-0.14197,0.19028 -0.33171,0.33966 -0.55,0.433c-0.05676,0.02513 -0.11485,0.04716 -0.174,0.066c-0.1829,0.05688 -0.37347,0.08521 -0.565,0.084c-0.41007,0.00666 -0.80976,-0.12904 -1.131,-0.384c-0.17393,-0.13295 -0.30953,-0.30961 -0.393,-0.512c-0.06376,-0.16272 -0.09534,-0.33625 -0.093,-0.511c-0.00113,-0.15313 0.02529,-0.30522 0.078,-0.449c0.06674,-0.17481 0.17004,-0.33334 0.303,-0.465c0.12286,-0.12404 0.256,-0.23744 0.398,-0.339c0.17434,-0.12458 0.35863,-0.23461 0.551,-0.329c0.52733,0.192 0.957,0.41767 1.289,0.677zM249.2905,179.2285c-0.36933,-0.17533 -0.682,-0.35567 -0.938,-0.541c-0.312,-0.22667 -0.468,-0.51167 -0.468,-0.855c-0.00372,-0.21211 0.06785,-0.41867 0.202,-0.583c0.04177,-0.05187 0.08758,-0.10035 0.137,-0.145c0.11296,-0.10013 0.24169,-0.18088 0.381,-0.239c0.20554,-0.08887 0.42707,-0.13481 0.651,-0.135c0.22623,0.00003 0.45021,0.04489 0.659,0.132c0.21267,0.088 0.38533,0.216 0.518,0.384c0.13259,0.16624 0.20329,0.37339 0.2,0.586c0,0.404 -0.20433,0.78833 -0.613,1.153c-0.1495,0.13149 -0.30898,0.25118 -0.477,0.358c-0.08456,-0.03709 -0.16857,-0.07542 -0.252,-0.115z"/></g></g></svg>