<svg version="1.1" xmlns="http://www.w3.org/2000/svg" xmlns:xlink="http://www.w3.org/1999/xlink" width="4.60911" height="6.889" viewBox="0,0,4.60911,6.889"><g transform="translate(-237.69495,-176.558)"><g fill="#ffffff" fill-rule="evenodd" stroke="#ffffff" stroke-width="0" stroke-linecap="round" stroke-miterlimit="10"><path d="M241.601,180.134c0.22133,0.168 0.394,0.37067 0.518,0.608c0.10084,0.19635 0.16137,0.4109 0.178,0.631c0.00473,0.05654 0.00706,0.11326 0.007,0.17c0.00143,0.17761 -0.02145,0.35459 -0.068,0.526c-0.05013,0.18103 -0.13207,0.35169 -0.242,0.504c-0.20667,0.28667 -0.48,0.504 -0.82,0.652c-0.34,0.148 -0.70367,0.222 -1.091,0.222c-0.384,0 -0.76,-0.06733 -1.128,-0.202c-0.23151,-0.08323 -0.44749,-0.20457 -0.639,-0.359c-0.09684,-0.0786 -0.18622,-0.16597 -0.267,-0.261c-0.20679,-0.24488 -0.32886,-0.55006 -0.348,-0.87c-0.0039,-0.04924 -0.0059,-0.09861 -0.006,-0.148c-0.00109,-0.15321 0.01637,-0.30599 0.052,-0.455c0.03016,-0.12299 0.07516,-0.24186 0.134,-0.354c0.12557,-0.23791 0.3021,-0.44517 0.517,-0.607c0.19568,-0.1487 0.41064,-0.27014 0.639,-0.361c0.03902,-0.0158 0.07837,-0.0308 0.118,-0.045c-0.39067,-0.08467 -0.70633,-0.27567 -0.947,-0.573c-0.24133,-0.298 -0.362,-0.644 -0.362,-1.038c-0.00067,-0.14073 0.01887,-0.28082 0.058,-0.416c0.02993,-0.10338 0.07295,-0.20252 0.128,-0.295c0.12285,-0.20571 0.29157,-0.38025 0.493,-0.51c0.20943,-0.13543 0.43941,-0.23606 0.681,-0.298c0.24813,-0.06479 0.50356,-0.09739 0.76,-0.097c0.25017,0.00012 0.49938,0.03102 0.742,0.092c0.24147,0.05975 0.47198,0.15729 0.683,0.289c0.20394,0.12569 0.37609,0.29681 0.503,0.5c0.10339,0.16749 0.16607,0.3569 0.183,0.553c0.00515,0.05084 0.00782,0.1019 0.008,0.153c0.0061,0.35049 -0.11667,0.69102 -0.345,0.957c-0.17073,0.19864 -0.37437,0.36642 -0.602,0.496c-0.09505,0.05499 -0.19322,0.1044 -0.294,0.148c0.22141,0.0699 0.43232,0.16947 0.627,0.296c0.04435,0.0292 0.08771,0.05988 0.13,0.092zM240.02,180.247c0.17333,0.07 0.33267,0.145 0.478,0.225c0.14362,0.07822 0.28072,0.16784 0.41,0.268c0.15915,0.12084 0.28,0.2851 0.348,0.473c0.04597,0.13278 0.06864,0.2725 0.067,0.413c0,0.21133 -0.05867,0.396 -0.176,0.554c-0.11833,0.1591 -0.2767,0.28401 -0.459,0.362c-0.047,0.02057 -0.09507,0.0386 -0.144,0.054c-0.15246,0.04742 -0.31133,0.07103 -0.471,0.07c-0.34156,0.00548 -0.67445,-0.10761 -0.942,-0.32c-0.14516,-0.11084 -0.25834,-0.25817 -0.328,-0.427c-0.05319,-0.1353 -0.07968,-0.27963 -0.078,-0.425c-0.00061,-0.12762 0.02175,-0.2543 0.066,-0.374c0.05553,-0.14545 0.14144,-0.27738 0.252,-0.387c0.10247,-0.10355 0.21353,-0.19822 0.332,-0.283c0.14524,-0.10375 0.29875,-0.19539 0.459,-0.274c0.06241,0.02257 0.12442,0.04624 0.186,0.071zM239.985,179.357c-0.14933,-0.07067 -0.28733,-0.14233 -0.414,-0.215c-0.12642,-0.07212 -0.24893,-0.15089 -0.367,-0.236c-0.03616,-0.02574 -0.07088,-0.05345 -0.104,-0.083c-0.18397,-0.15734 -0.28902,-0.38793 -0.287,-0.63c-0.00267,-0.17655 0.05719,-0.34835 0.169,-0.485c0.112,-0.13867 0.256,-0.24533 0.432,-0.32c0.17109,-0.07416 0.35553,-0.11261 0.542,-0.113c0.18847,0.00003 0.37507,0.03741 0.549,0.11c0.01649,0.00698 0.03283,0.01431 0.049,0.022c0.14946,0.06761 0.28073,0.16975 0.383,0.298c0.11012,0.13857 0.16879,0.31103 0.166,0.488c0.00002,0.00333 0.00002,0.00667 0,0.01c-0.00333,0.33333 -0.17367,0.65067 -0.511,0.952c-0.12444,0.10944 -0.25717,0.20907 -0.397,0.298c-0.07047,-0.03096 -0.14048,-0.06296 -0.21,-0.096z"/></g></g></svg>