<svg version="1.1" xmlns="http://www.w3.org/2000/svg" xmlns:xlink="http://www.w3.org/1999/xlink" width="5.29106" height="8.29721" viewBox="0,0,5.29106,8.29721"><g transform="translate(-237.246,-175.83933)"><g fill="#ffffff" fill-rule="evenodd" stroke="#000000" stroke-width="0" stroke-linecap="round" stroke-miterlimit="10"><path d="M237.656,183.8675l0.141,-1.02c0.22376,0.10523 0.45674,0.18958 0.696,0.252c0.24713,0.06499 0.50147,0.09858 0.757,0.1c0.22555,0.00255 0.45016,-0.02949 0.666,-0.095c0.40825,-0.12798 0.75118,-0.40892 0.957,-0.784c0.208,-0.36334 0.36067,-0.75565 0.453,-1.164c0.07025,-0.30709 0.11474,-0.61951 0.133,-0.934c-0.36835,0.49438 -0.93316,0.80452 -1.548,0.85c-0.08346,0.00745 -0.16721,0.01112 -0.251,0.011c-0.25803,0.00208 -0.5149,-0.03466 -0.762,-0.109c-0.17215,-0.0531 -0.33733,-0.12663 -0.492,-0.219c-0.36667,-0.21867 -0.65167,-0.52533 -0.855,-0.92c-0.15452,-0.30421 -0.25116,-0.63448 -0.285,-0.974c-0.01327,-0.12222 -0.01995,-0.24506 -0.02,-0.368c0,-0.37467 0.06267,-0.725 0.188,-1.051c0.11979,-0.31823 0.30203,-0.60927 0.536,-0.856c0.2293,-0.24179 0.50794,-0.43141 0.817,-0.556c0.28002,-0.1127 0.57738,-0.1763 0.879,-0.188c0.04497,-0.002 0.08998,-0.003 0.135,-0.003c0.29648,-0.00318 0.59166,0.03966 0.875,0.127c0.46983,0.1493 0.87701,0.44994 1.158,0.855c0.34467,0.48067 0.56267,1.119 0.654,1.915c0.03385,0.30649 0.05021,0.61465 0.049,0.923c0,0.76733 -0.07567,1.43867 -0.227,2.014c-0.04011,0.15219 -0.0875,0.30236 -0.142,0.45c-0.09611,0.26569 -0.22261,0.51937 -0.377,0.756c-0.1917,0.29454 -0.43857,0.54922 -0.727,0.75c-0.32406,0.22009 -0.69058,0.36997 -1.076,0.44c-0.24331,0.04576 -0.49043,0.0682 -0.738,0.067c-0.08803,0.00026 -0.17605,-0.00141 -0.264,-0.005c-0.08333,-0.004 -0.16233,-0.00967 -0.237,-0.017c-0.005,-0.00032 -0.01,-0.00066 -0.015,-0.001c-0.09448,-0.01016 -0.18854,-0.02383 -0.282,-0.041c-0.06929,-0.01215 -0.13831,-0.02582 -0.207,-0.041c-0.08078,-0.01852 -0.16113,-0.03886 -0.241,-0.061c-0.08133,-0.022 -0.167,-0.047 -0.257,-0.075c-0.03038,-0.00918 -0.06071,-0.01851 -0.091,-0.028zM239.848,176.7775c-0.18364,-0.00198 -0.36573,0.03376 -0.535,0.105c-0.07009,0.03032 -0.13736,0.06679 -0.201,0.109c-0.17865,0.11864 -0.32807,0.27626 -0.437,0.461c-0.02708,0.04518 -0.05211,0.09156 -0.075,0.139c-0.09543,0.19901 -0.15501,0.41329 -0.176,0.633c-0.00798,0.07774 -0.01199,0.15585 -0.012,0.234c-0.00166,0.20166 0.02631,0.40247 0.083,0.596c0.06687,0.22479 0.18033,0.43297 0.333,0.611c0.12402,0.14866 0.27761,0.26989 0.451,0.356c0.1847,0.08843 0.38724,0.13324 0.592,0.131c0.21473,0.00291 0.42701,-0.04579 0.619,-0.142c0.15349,-0.07962 0.29056,-0.18751 0.404,-0.318c0.27133,-0.30667 0.407,-0.69067 0.407,-1.152c0.00149,-0.25999 -0.0439,-0.51812 -0.134,-0.762c-0.01649,-0.04427 -0.0345,-0.08797 -0.054,-0.131c-0.06167,-0.13898 -0.14208,-0.26885 -0.239,-0.386c-0.08189,-0.09779 -0.17677,-0.18392 -0.282,-0.256c-0.21856,-0.15089 -0.47842,-0.23052 -0.744,-0.228z"/></g></g></svg>