<svg version="1.1" xmlns="http://www.w3.org/2000/svg" xmlns:xlink="http://www.w3.org/1999/xlink" width="4.78703" height="8.039" viewBox="0,0,4.78703,8.039"><g transform="translate(-237.774,-176.0335)"><g fill="#ffffff" fill-rule="evenodd" stroke="#000000" stroke-width="0" stroke-linecap="round" stroke-miterlimit="10"><path d="M237.879,176.0335h4.441v0.949h-3.369l-0.035,1.488c0.00004,0.02567 -0.00029,0.05134 -0.001,0.077c-0.00333,0.11067 -0.01266,0.28833 -0.028,0.533c0.22387,-0.06236 0.45392,-0.09992 0.686,-0.112c0.06793,-0.00388 0.13596,-0.00588 0.204,-0.006c0.25969,-0.00131 0.5188,0.02483 0.773,0.078c0.23478,0.0493 0.46252,0.12756 0.678,0.233c0.40429,0.19321 0.74474,0.49826 0.981,0.879c0.19243,0.31409 0.30854,0.66891 0.339,1.036c0.00851,0.08975 0.01284,0.17984 0.013,0.27c0.00106,0.21811 -0.02344,0.4356 -0.073,0.648c-0.03437,0.14593 -0.08258,0.28824 -0.144,0.425c-0.14336,0.31865 -0.35785,0.60019 -0.627,0.823c-0.19507,0.16152 -0.41144,0.29544 -0.643,0.398c-0.1122,0.05017 -0.22704,0.09424 -0.344,0.132c-0.24817,0.0794 -0.50384,0.13302 -0.763,0.16c-0.17403,0.01882 -0.34895,0.02817 -0.524,0.028c-0.12008,-0.00008 -0.24014,-0.00375 -0.36,-0.011c-0.07614,-0.00454 -0.15216,-0.01087 -0.228,-0.019c-0.182,-0.01934 -0.359,-0.04833 -0.531,-0.087c-0.17133,-0.03933 -0.35467,-0.09233 -0.55,-0.159l0.035,-1.054c0.13546,0.05958 0.27286,0.11461 0.412,0.165c0.05174,0.01875 0.10375,0.03675 0.156,0.054c0.11606,0.03847 0.23386,0.0715 0.353,0.099c0.05866,0.01361 0.11769,0.02561 0.177,0.036c0.17343,0.02963 0.34906,0.04435 0.525,0.044c0.17523,0.00082 0.35011,-0.01593 0.522,-0.05c0.16274,-0.03223 0.32092,-0.08429 0.471,-0.155c0.17629,-0.08195 0.33674,-0.19434 0.474,-0.332c0.07408,-0.07561 0.14011,-0.15873 0.197,-0.248c0.16,-0.25 0.24,-0.52934 0.24,-0.838c0.00084,-0.13745 -0.01528,-0.27449 -0.048,-0.408c-0.02248,-0.08948 -0.05364,-0.17656 -0.093,-0.26c-0.09333,-0.19933 -0.23,-0.37134 -0.41,-0.516c-0.13906,-0.11082 -0.29417,-0.19984 -0.46,-0.264c-0.05839,-0.02297 -0.11779,-0.04333 -0.178,-0.061c-0.16071,-0.04643 -0.32543,-0.07757 -0.492,-0.093c-0.10736,-0.01022 -0.21516,-0.01524 -0.323,-0.015c-0.26672,0.00118 -0.53267,0.02864 -0.794,0.082c-0.23936,0.04854 -0.47523,0.11303 -0.706,0.193z"/></g></g></svg>