<svg version="1.1" xmlns="http://www.w3.org/2000/svg" xmlns:xlink="http://www.w3.org/1999/xlink" width="11.13905" height="8.29718" viewBox="0,0,11.13905,8.29718"><g transform="translate(-234.802,-175.85144)"><g fill="#ffffff" fill-rule="evenodd" stroke="#000000" stroke-width="0" stroke-linecap="round" stroke-miterlimit="10"><path d="M236.771,175.9865h1.055v8.004h-1.137v-4.858c0.00184,-0.15166 0.0035,-0.30333 0.005,-0.455c0.00152,-0.13833 0.00285,-0.27666 0.004,-0.415c0.00042,-0.07067 0.00076,-0.14133 0.001,-0.212c0.00133,-0.228 0.002,-0.5 0.002,-0.816c-0.08298,0.10457 -0.17214,0.20408 -0.267,0.298c-0.02103,0.02098 -0.04236,0.04165 -0.064,0.062c-0.104,0.09733 -0.248,0.22167 -0.432,0.373c-0.01997,0.01637 -0.03997,0.0327 -0.06,0.049c-0.04637,0.03762 -0.0927,0.07529 -0.139,0.113c-0.106,0.08733 -0.189,0.15633 -0.249,0.207c-0.01638,0.01327 -0.03271,0.02661 -0.049,0.04l-0.639,-0.755z"/><path d="M244.544,176.1975c0.01753,0.01138 0.03486,0.02305 0.052,0.035c0.36259,0.25068 0.65184,0.59343 0.838,0.993c0.19563,0.41605 0.3297,0.85835 0.398,1.313c0.00033,0.00167 0.00067,0.00333 0.001,0.005c0.05061,0.336 0.08299,0.6745 0.097,1.014c0.0073,0.1649 0.01097,0.32994 0.011,0.495c0.00149,0.42255 -0.02759,0.84465 -0.087,1.263c-0.03433,0.23746 -0.08039,0.47309 -0.138,0.706c-0.08287,0.34333 -0.21884,0.67162 -0.403,0.973c-0.1216,0.19753 -0.26555,0.38041 -0.429,0.545c-0.27239,0.27034 -0.61672,0.45673 -0.992,0.537c-0.22154,0.04953 -0.448,0.07368 -0.675,0.072c-0.23684,0.00218 -0.47302,-0.02537 -0.703,-0.082c-0.36768,-0.08899 -0.70177,-0.28243 -0.962,-0.557c-0.34341,-0.36661 -0.59856,-0.8068 -0.746,-1.287c-0.03025,-0.09531 -0.05693,-0.19171 -0.08,-0.289c-0.148,-0.62467 -0.222,-1.29067 -0.222,-1.998c-0.0018,-0.49589 0.04138,-0.99091 0.129,-1.479c0.02882,-0.15742 0.06284,-0.31383 0.102,-0.469c0.08028,-0.32778 0.20725,-0.64233 0.377,-0.934c0.12673,-0.21561 0.27955,-0.41478 0.455,-0.593c0.27592,-0.27642 0.62725,-0.4653 1.01,-0.543c0.2103,-0.04523 0.4249,-0.06736 0.64,-0.066c0.20344,-0.00126 0.40649,0.01818 0.606,0.058c0.27,0.056 0.51033,0.152 0.721,0.288zM244.069,177.1615c0.23267,0.248 0.40833,0.60933 0.527,1.084c0.02898,0.11605 0.05366,0.23313 0.074,0.351c0.07,0.40267 0.105,0.86867 0.105,1.398c0,0.71133 -0.058,1.306 -0.174,1.784c-0.0498,0.21271 -0.12117,0.41978 -0.213,0.618c-0.05944,0.12827 -0.13324,0.24938 -0.22,0.361c-0.21832,0.29165 -0.56376,0.46027 -0.928,0.453c-0.03235,0.00024 -0.06469,-0.00043 -0.097,-0.002c-0.41933,-0.024 -0.73833,-0.20333 -0.957,-0.538c-0.0909,-0.14349 -0.16125,-0.299 -0.209,-0.462c-0.0983,-0.32395 -0.17184,-0.6549 -0.22,-0.99c-0.05933,-0.41333 -0.08841,-0.83044 -0.087,-1.248c-0.00005,-0.14538 0.00296,-0.29075 0.009,-0.436c0.00933,-0.23467 0.02733,-0.45533 0.054,-0.662c0.02586,-0.21209 0.06426,-0.42245 0.115,-0.63c0.11933,-0.47667 0.29533,-0.838 0.528,-1.084c0.232,-0.246 0.50833,-0.369 0.829,-0.369c0.34333,0 0.63133,0.124 0.864,0.372z"/></g></g></svg>