<svg version="1.1" xmlns="http://www.w3.org/2000/svg" xmlns:xlink="http://www.w3.org/1999/xlink" width="5.098" height="8.09801" viewBox="0,0,5.098,8.09801"><g transform="translate(-237.416,-175.89249)"><g fill="#ffffff" fill-rule="evenodd" stroke="#000000" stroke-width="0" stroke-linecap="round" stroke-miterlimit="10"><path d="M237.727,177.4045l-0.123,-1.031c0.10472,-0.04353 0.21006,-0.08553 0.316,-0.126c0.11533,-0.044 0.22467,-0.083 0.328,-0.117c0.04583,-0.01552 0.09183,-0.03053 0.138,-0.045c0.1353,-0.04164 0.27244,-0.07701 0.411,-0.106c0.08018,-0.01697 0.16089,-0.03131 0.242,-0.043c0.10887,-0.0152 0.21828,-0.02621 0.328,-0.033c0.12119,-0.00752 0.24258,-0.01119 0.364,-0.011c0.50733,0 0.96033,0.09167 1.359,0.275c0.21695,0.09812 0.41734,0.22936 0.594,0.389c0.12682,0.11571 0.23838,0.2471 0.332,0.391c0.2176,0.33532 0.33167,0.72728 0.328,1.127c0.00001,0.003 0.00001,0.006 0,0.009c0,0.254 -0.03533,0.505 -0.106,0.753c-0.0376,0.13093 -0.08472,0.25894 -0.141,0.383c-0.052,0.11533 -0.113,0.23333 -0.183,0.354c-0.00989,0.0174 -0.01989,0.03473 -0.03,0.052c-0.08779,0.14569 -0.18188,0.28749 -0.282,0.425c-0.11068,0.15242 -0.22675,0.30085 -0.348,0.445c-0.254,0.30267 -0.582,0.659 -0.984,1.069c-0.22137,0.22177 -0.44742,0.43882 -0.678,0.651c-0.38533,0.354 -0.73967,0.64867 -1.063,0.884c0.0592,-0.01208 0.11893,-0.02142 0.179,-0.028c0.172,-0.02 0.39567,-0.03 0.671,-0.03h3.135v0.949h-5.098v-1.213c0.30694,-0.26156 0.61063,-0.52691 0.911,-0.796c0.09605,-0.0859 0.19172,-0.17224 0.287,-0.259c0.26925,-0.24572 0.53104,-0.49951 0.785,-0.761c0.12189,-0.12552 0.24223,-0.25253 0.361,-0.381c0.23293,-0.2505 0.45033,-0.51499 0.651,-0.792c0.11295,-0.15653 0.21937,-0.31767 0.319,-0.483c0.08386,-0.13821 0.15772,-0.28224 0.221,-0.431c0.066,-0.15733 0.11267,-0.30867 0.14,-0.454c0.01836,-0.09727 0.02773,-0.19602 0.028,-0.295c0.00745,-0.32682 -0.12455,-0.64137 -0.363,-0.865c-0.02546,-0.0243 -0.05182,-0.04764 -0.079,-0.07c-0.20802,-0.17007 -0.45632,-0.28372 -0.721,-0.33c-0.13425,-0.02466 -0.27051,-0.03671 -0.407,-0.036c-0.30005,0.00246 -0.59792,0.05137 -0.883,0.145c-0.23733,0.07533 -0.48033,0.18033 -0.729,0.315c-0.07088,0.03844 -0.1409,0.07845 -0.21,0.12z"/></g></g></svg>