<svg version="1.1" xmlns="http://www.w3.org/2000/svg" xmlns:xlink="http://www.w3.org/1999/xlink" width="4.409" height="6.91416" viewBox="0,0,4.409,6.91416"><g transform="translate(-237.705,-176.53287)"><g fill="#ffffff" fill-rule="evenodd" stroke="#ffffff" stroke-width="0" stroke-linecap="round" stroke-miterlimit="10"><path d="M238.047,183.223l0.117,-0.85c0.18646,0.08769 0.38062,0.15799 0.58,0.21c0.20601,0.05406 0.41802,0.08195 0.631,0.083c0.18761,0.00207 0.37444,-0.02457 0.554,-0.079c0.34038,-0.10638 0.62637,-0.3404 0.798,-0.653c0.17315,-0.30281 0.30022,-0.62973 0.377,-0.97c0.05898,-0.25609 0.09644,-0.51667 0.112,-0.779c-0.30708,0.41246 -0.77818,0.67118 -1.291,0.709c-0.06916,0.00612 -0.13857,0.00912 -0.208,0.009c-0.21537,0.00178 -0.42977,-0.02889 -0.636,-0.091c-0.14309,-0.04417 -0.2804,-0.10527 -0.409,-0.182c-0.306,-0.18267 -0.54367,-0.43833 -0.713,-0.767c-0.12886,-0.25327 -0.20956,-0.52826 -0.238,-0.811c-0.01085,-0.10197 -0.01619,-0.20445 -0.016,-0.307c0,-0.31267 0.052,-0.60467 0.156,-0.876c0.09998,-0.26509 0.25196,-0.50751 0.447,-0.713c0.19107,-0.20175 0.42333,-0.36 0.681,-0.464c0.23324,-0.09364 0.48085,-0.14641 0.732,-0.156c0.03764,-0.00184 0.07532,-0.00284 0.113,-0.003c0.24702,-0.00259 0.49295,0.03317 0.729,0.106c0.39145,0.12428 0.73076,0.37463 0.965,0.712c0.39067,0.54533 0.586,1.334 0.586,2.366c0,0.63867 -0.06333,1.19767 -0.19,1.677c-0.03328,0.12715 -0.07266,0.25263 -0.118,0.376c-0.07979,0.22101 -0.18482,0.43207 -0.313,0.629c-0.16,0.24592 -0.36613,0.4585 -0.607,0.626c-0.26991,0.18308 -0.5751,0.30775 -0.896,0.366c-0.20275,0.03819 -0.40869,0.05694 -0.615,0.056c-0.16,0 -0.30333,-0.00633 -0.43,-0.019c-0.07906,-0.00838 -0.15779,-0.01972 -0.236,-0.034c-0.05758,-0.01041 -0.11493,-0.02207 -0.172,-0.035c-0.06737,-0.01516 -0.13438,-0.03183 -0.201,-0.05c-0.09067,-0.02467 -0.187,-0.05333 -0.289,-0.086zM239.873,177.314c-0.228,0 -0.43233,0.05967 -0.613,0.179c-0.14915,0.09873 -0.27396,0.23003 -0.365,0.384c-0.0224,0.03771 -0.04309,0.07642 -0.062,0.116c-0.07956,0.16567 -0.12932,0.34406 -0.147,0.527c-0.00635,0.06514 -0.00935,0.13056 -0.009,0.196c0,0.4 0.11533,0.73533 0.346,1.006c0.10348,0.12364 0.23152,0.22444 0.376,0.296c0.15383,0.07359 0.32249,0.11088 0.493,0.109c0.17897,0.00258 0.35594,-0.03789 0.516,-0.118c0.12767,-0.06641 0.24167,-0.15632 0.336,-0.265c0.18513,-0.2099 0.29984,-0.47254 0.328,-0.751c0.00808,-0.06937 0.01209,-0.13916 0.012,-0.209c0.00159,-0.21695 -0.03601,-0.43241 -0.111,-0.636c-0.01408,-0.03685 -0.02942,-0.07321 -0.046,-0.109c-0.05139,-0.11557 -0.11834,-0.22357 -0.199,-0.321c-0.06827,-0.08137 -0.14733,-0.15303 -0.235,-0.213c-0.18533,-0.12733 -0.392,-0.191 -0.62,-0.191z"/></g></g></svg>