<svg version="1.1" xmlns="http://www.w3.org/2000/svg" xmlns:xlink="http://www.w3.org/1999/xlink" width="4.17007" height="6.84609" viewBox="0,0,4.17007,6.84609"><g transform="translate(-237.846,-176.56696)"><g fill="#ffffff" fill-rule="evenodd" stroke="#ffffff" stroke-width="0" stroke-linecap="round" stroke-miterlimit="10"><path d="M238.115,177.676l-0.068,-0.82c0.25667,-0.09467 0.51767,-0.16633 0.783,-0.215c0.26533,-0.04933 0.54633,-0.074 0.843,-0.074c0.25237,-0.00124 0.50414,0.02457 0.751,0.077c0.30561,0.06379 0.59703,0.18274 0.86,0.351c0.35604,0.22643 0.59056,0.60174 0.638,1.021c0.0144,0.10236 0.02141,0.20563 0.021,0.309c0.00664,0.38121 -0.14336,0.74846 -0.415,1.016c-0.0089,0.0091 -0.0179,0.0181 -0.027,0.027c-0.29467,0.28467 -0.67967,0.44667 -1.155,0.486c0.15967,0.00838 0.31794,0.0342 0.472,0.077c0.14239,0.0399 0.27915,0.09769 0.407,0.172c0.25067,0.146 0.44533,0.34367 0.584,0.593c0.11265,0.20545 0.18047,0.43243 0.199,0.666c0.00535,0.06018 0.00802,0.12058 0.008,0.181c0.00186,0.2056 -0.03197,0.40997 -0.1,0.604c-0.04902,0.13675 -0.1163,0.26626 -0.2,0.385c-0.15189,0.21327 -0.34889,0.39046 -0.577,0.519c-0.08856,0.05107 -0.18043,0.09617 -0.275,0.135c-0.35667,0.14667 -0.77467,0.22233 -1.254,0.227c-0.015,0.00007 -0.03,0.00007 -0.045,0c-0.58341,0.0001 -1.16331,-0.09031 -1.719,-0.268l0.039,-0.889c0.11775,0.04978 0.2368,0.09646 0.357,0.14c0.118,0.04267 0.22967,0.07867 0.335,0.108c0.06058,0.01727 0.1216,0.03294 0.183,0.047c0.248,0.05682 0.50158,0.08567 0.756,0.086c0.15033,0.00075 0.30026,-0.01535 0.447,-0.048c0.1075,-0.0243 0.21234,-0.05913 0.313,-0.104c0.111,-0.04864 0.2152,-0.1115 0.31,-0.187c0.08334,-0.06688 0.15703,-0.14495 0.219,-0.232c0.12733,-0.17933 0.191,-0.37967 0.191,-0.601c0.00148,-0.12795 -0.01639,-0.25539 -0.053,-0.378c-0.08,-0.25733 -0.25067,-0.44633 -0.512,-0.567c-0.00532,-0.00237 -0.01065,-0.0047 -0.016,-0.007c-0.376,-0.16733 -0.818,-0.25367 -1.326,-0.259c-0.01533,-0.00007 -0.03067,-0.00007 -0.046,0c-0.11067,0 -0.21033,0.003 -0.299,0.009c-0.003,0.00033 -0.006,0.00066 -0.009,0.001v-0.811c0.25375,0.00062 0.50738,-0.01106 0.76,-0.035c0.08719,-0.00865 0.17421,-0.01899 0.261,-0.031c0.322,-0.044 0.606,-0.148 0.852,-0.312c0.19996,-0.12925 0.33136,-0.3414 0.358,-0.578c0.00675,-0.05038 0.01009,-0.10117 0.01,-0.152c0,-0.19533 -0.057,-0.36867 -0.171,-0.52c-0.07951,-0.10445 -0.17829,-0.19271 -0.291,-0.26c-0.05981,-0.03612 -0.12233,-0.06755 -0.187,-0.094c-0.12707,-0.05168 -0.2601,-0.08729 -0.396,-0.106c-0.1017,-0.01428 -0.2043,-0.0213 -0.307,-0.021c-0.29644,0.00163 -0.59148,0.04094 -0.878,0.117c-0.21523,0.05642 -0.4261,0.12827 -0.631,0.215z"/></g></g></svg>