<svg version="1.1" xmlns="http://www.w3.org/2000/svg" xmlns:xlink="http://www.w3.org/1999/xlink" width="5.5321" height="8.267" viewBox="0,0,5.5321,8.267"><g transform="translate(-237.23396,-175.8695)"><g fill="#ffffff" fill-rule="evenodd" stroke="#000000" stroke-width="0" stroke-linecap="round" stroke-miterlimit="10"><path d="M241.922,180.1615c0.25903,0.19337 0.47127,0.44252 0.621,0.729c0.14867,0.28533 0.223,0.60567 0.223,0.961c0.00158,0.21309 -0.02601,0.42539 -0.082,0.631c-0.05999,0.21728 -0.15819,0.42214 -0.29,0.605c-0.248,0.344 -0.57633,0.605 -0.985,0.783c-0.408,0.17733 -0.84433,0.266 -1.309,0.266c-0.46217,-0.00009 -0.92064,-0.08237 -1.354,-0.243c-0.27783,-0.09962 -0.53706,-0.24495 -0.767,-0.43c-0.1161,-0.0946 -0.22322,-0.19971 -0.32,-0.314c-0.2483,-0.2938 -0.39493,-0.66002 -0.418,-1.044c-0.00462,-0.05922 -0.00695,-0.1186 -0.007,-0.178c-0.00104,-0.18354 0.02011,-0.36654 0.063,-0.545c0.03599,-0.14728 0.08972,-0.28966 0.16,-0.424c0.14867,-0.28333 0.35567,-0.52667 0.621,-0.73c0.23489,-0.17839 0.49291,-0.32405 0.767,-0.433c0.04664,-0.01861 0.09365,-0.03628 0.141,-0.053c-0.46867,-0.102 -0.84733,-0.33167 -1.136,-0.689c-0.28933,-0.35733 -0.434,-0.77233 -0.434,-1.245c-0.00107,-0.16911 0.02216,-0.3375 0.069,-0.5c0.03621,-0.12339 0.08796,-0.24167 0.154,-0.352c0.148,-0.24867 0.34533,-0.453 0.592,-0.613c0.25129,-0.16229 0.52719,-0.28285 0.817,-0.357c0.2974,-0.07787 0.60357,-0.11719 0.911,-0.117c0.30043,0.00029 0.59968,0.03757 0.891,0.111c0.28986,0.07141 0.5666,0.18818 0.82,0.346c0.24486,0.15081 0.45156,0.35615 0.604,0.6c0.12391,0.20117 0.19892,0.42859 0.219,0.664c0.00596,0.06082 0.00896,0.12189 0.009,0.183c0.00742,0.42031 -0.13952,0.82875 -0.413,1.148c-0.20461,0.23897 -0.44884,0.44092 -0.722,0.597c-0.11414,0.06579 -0.232,0.12489 -0.353,0.177c0.26519,0.08394 0.51782,0.20335 0.751,0.355c0.05357,0.03522 0.10594,0.07224 0.157,0.111zM241.09,180.8875c0.19068,0.14492 0.33548,0.3418 0.417,0.567c0.05552,0.15974 0.08293,0.3279 0.081,0.497c0.00012,0.02 -0.00022,0.04001 -0.001,0.06c-0.00672,0.21835 -0.07999,0.42944 -0.21,0.605c-0.14225,0.19042 -0.33235,0.33981 -0.551,0.433c-0.05644,0.0251 -0.11419,0.04713 -0.173,0.066c-0.1829,0.05688 -0.37347,0.08521 -0.565,0.084c-0.41007,0.00666 -0.80976,-0.12904 -1.131,-0.384c-0.17393,-0.13295 -0.30953,-0.30961 -0.393,-0.512c-0.06376,-0.16272 -0.09534,-0.33625 -0.093,-0.511c-0.00113,-0.15313 0.02529,-0.30522 0.078,-0.449c0.06674,-0.17481 0.17004,-0.33334 0.303,-0.465c0.12286,-0.12404 0.256,-0.23744 0.398,-0.339c0.17434,-0.12458 0.35863,-0.23461 0.551,-0.329c0.52733,0.192 0.957,0.41767 1.289,0.677zM239.982,179.2285c-0.36867,-0.17533 -0.681,-0.35567 -0.937,-0.541c-0.31267,-0.22667 -0.469,-0.51167 -0.469,-0.855c-0.00372,-0.21211 0.06785,-0.41867 0.202,-0.583c0.04209,-0.05191 0.08824,-0.10039 0.138,-0.145c0.11296,-0.10013 0.24169,-0.18088 0.381,-0.239c0.20523,-0.08873 0.42641,-0.13467 0.65,-0.135c0.22657,-0.00011 0.4509,0.04476 0.66,0.132c0.21267,0.088 0.38533,0.216 0.518,0.384c0.13223,0.16637 0.20258,0.37351 0.199,0.586c0,0.404 -0.20433,0.78833 -0.613,1.153c-0.1495,0.13149 -0.30898,0.25118 -0.477,0.358c-0.08456,-0.03709 -0.16857,-0.07542 -0.252,-0.115z"/></g></g></svg>