<svg version="1.1" xmlns="http://www.w3.org/2000/svg" xmlns:xlink="http://www.w3.org/1999/xlink" width="29.97005" height="8.29718" viewBox="0,0,29.97005,8.29718"><g transform="translate(-225.2785,-175.85144)"><g fill="#ffffff" fill-rule="evenodd" stroke="#000000" stroke-width="0" stroke-linecap="round" stroke-miterlimit="10"><path d="M230.5455,175.9865h1.131v8.004h-1.476l-2.532,-4.342c-0.40267,-0.712 -0.69033,-1.233 -0.863,-1.563c-0.01409,-0.02695 -0.02809,-0.05395 -0.042,-0.081c-0.09628,-0.18805 -0.18273,-0.38098 -0.259,-0.578c-0.0671,-0.17315 -0.12813,-0.34859 -0.183,-0.526c0.066,0.87867 0.099,1.88633 0.099,3.023v4.067h-1.142v-8.004h1.558l2.725,4.717c0.14517,0.25114 0.28586,0.50485 0.422,0.761c0.262,0.49667 0.46233,0.927 0.601,1.291c0.02979,0.07903 0.05779,0.15871 0.084,0.239c-0.04133,-0.43733 -0.06833,-0.75733 -0.081,-0.96c-0.00273,-0.03931 -0.00506,-0.07864 -0.007,-0.118c-0.00733,-0.31267 -0.014,-0.62133 -0.02,-0.926c-0.00099,-0.05333 -0.00199,-0.10667 -0.003,-0.16c-0.004,-0.21267 -0.007,-0.35067 -0.009,-0.414c-0.002,-0.07333 -0.003,-0.24733 -0.003,-0.522c0,-0.01967 0,-0.03933 0,-0.059z"/><path d="M238.8045,182.6665c-0.24736,0.45971 -0.62152,0.83873 -1.078,1.092c-0.46267,0.26 -0.98333,0.39 -1.562,0.39c-0.33135,0.00236 -0.66102,-0.04724 -0.977,-0.147c-0.19444,-0.06263 -0.38152,-0.14612 -0.558,-0.249c-0.45166,-0.26231 -0.82091,-0.64577 -1.066,-1.107c-0.24755,-0.45911 -0.38,-0.97144 -0.386,-1.493c-0.00061,-0.02666 -0.00095,-0.05333 -0.001,-0.08c0,-0.45333 0.07333,-0.86833 0.22,-1.245c0.14018,-0.36738 0.35349,-0.70249 0.627,-0.985c0.27229,-0.27963 0.59948,-0.49991 0.961,-0.647c0.35204,-0.14393 0.72774,-0.22124 1.108,-0.228c0.028,-0.00067 0.056,-0.001 0.084,-0.001c0.31007,-0.00138 0.61879,0.04104 0.917,0.126c0.09622,0.0276 0.191,0.05997 0.284,0.097c0.36432,0.14373 0.69393,0.36325 0.967,0.644c0.27591,0.28523 0.48943,0.62477 0.627,0.997c0.12264,0.32878 0.19381,0.67451 0.211,1.025c0.00397,0.07227 0.00597,0.14463 0.006,0.217c0.00181,0.31805 -0.03922,0.6349 -0.122,0.942c-0.06177,0.22675 -0.14969,0.44556 -0.262,0.652zM238.0225,181.3665c-0.02467,0.29607 -0.10223,0.58531 -0.229,0.854c-0.02923,0.06176 -0.06127,0.12216 -0.096,0.181c-0.1402,0.241 -0.33383,0.44661 -0.566,0.601c-0.27936,0.1852 -0.60784,0.28239 -0.943,0.279c-0.01134,-0.00024 -0.02267,-0.00057 -0.034,-0.001c-0.33063,-0.00091 -0.65382,-0.09821 -0.93,-0.28c-0.12599,-0.0835 -0.24062,-0.183 -0.341,-0.296c-0.13074,-0.1487 -0.2389,-0.31582 -0.321,-0.496c-0.07113,-0.15355 -0.12609,-0.31408 -0.164,-0.479c-0.04976,-0.21949 -0.07425,-0.44395 -0.073,-0.669c-0.00061,-0.17321 0.01344,-0.34616 0.042,-0.517c0.0621,-0.39838 0.23071,-0.77257 0.488,-1.083c0.02985,-0.03568 0.06086,-0.07037 0.093,-0.104c0.31933,-0.34448 0.77035,-0.53653 1.24,-0.528c0.01633,-0.00021 0.03267,-0.00021 0.049,0c0.23783,0.00442 0.47188,0.06038 0.686,0.164c0.22677,0.11108 0.42671,0.27008 0.586,0.466c0.166,0.20067 0.295,0.44367 0.387,0.729c0.01493,0.04696 0.0286,0.09431 0.041,0.142c0.06527,0.25007 0.09788,0.50755 0.097,0.766c0.00006,0.09047 -0.00395,0.18089 -0.012,0.271z"/><path d="M240.6185,182.7075h1.283v1.283h-1.283z"/><path d="M246.0785,175.9865h1.055v8.004h-1.137v-4.858c0.00217,-0.15166 0.00417,-0.30333 0.006,-0.455c0.00119,-0.13833 0.00219,-0.27667 0.003,-0.415c0.00076,-0.07067 0.00142,-0.14133 0.002,-0.212c0.00067,-0.228 0.001,-0.5 0.001,-0.816c-0.08298,0.10457 -0.17214,0.20408 -0.267,0.298c-0.02103,0.02098 -0.04236,0.04165 -0.064,0.062c-0.104,0.09733 -0.248,0.22167 -0.432,0.373c-0.01997,0.01637 -0.03997,0.0327 -0.06,0.049c-0.04637,0.03762 -0.0927,0.07529 -0.139,0.113c-0.106,0.08733 -0.189,0.15633 -0.249,0.207c-0.01638,0.01327 -0.03271,0.02661 -0.049,0.04l-0.638,-0.755z"/><path d="M253.8515,176.1975c0.01786,0.01137 0.03553,0.02304 0.053,0.035c0.36259,0.25068 0.65184,0.59343 0.838,0.993c0.19528,0.41611 0.32902,0.8584 0.397,1.313c0.00033,0.00167 0.00067,0.00333 0.001,0.005c0.05094,0.33598 0.08365,0.67448 0.098,1.014c0.00697,0.16491 0.0103,0.32995 0.01,0.495c0.00149,0.42255 -0.02759,0.84465 -0.087,1.263c-0.03433,0.23746 -0.08039,0.47309 -0.138,0.706c-0.08256,0.34327 -0.21819,0.67156 -0.402,0.973c-0.12191,0.19759 -0.2662,0.38046 -0.43,0.545c-0.27239,0.27034 -0.61672,0.45673 -0.992,0.537c-0.22154,0.04953 -0.448,0.07368 -0.675,0.072c-0.23684,0.00218 -0.47302,-0.02537 -0.703,-0.082c-0.36732,-0.08917 -0.70104,-0.2826 -0.961,-0.557c-0.34341,-0.36661 -0.59856,-0.8068 -0.746,-1.287c-0.03025,-0.09531 -0.05693,-0.19171 -0.08,-0.289c-0.14867,-0.62467 -0.223,-1.29067 -0.223,-1.998c-0.0018,-0.49589 0.04138,-0.99091 0.129,-1.479c0.02882,-0.15742 0.06284,-0.31383 0.102,-0.469c0.0806,-0.32784 0.2079,-0.64239 0.378,-0.934c0.12642,-0.21555 0.2789,-0.41472 0.454,-0.593c0.27592,-0.27642 0.62725,-0.4653 1.01,-0.543c0.2103,-0.04523 0.4249,-0.06736 0.64,-0.066c0.20344,-0.00126 0.40649,0.01818 0.606,0.058c0.27067,0.056 0.511,0.152 0.721,0.288zM253.3765,177.1615c0.23267,0.248 0.40867,0.60933 0.528,1.084c0.02898,0.11605 0.05366,0.23313 0.074,0.351c0.06933,0.40267 0.104,0.86867 0.104,1.398c0,0.71133 -0.058,1.306 -0.174,1.784c-0.04948,0.21267 -0.12051,0.41974 -0.212,0.618c-0.05975,0.12832 -0.13389,0.24943 -0.221,0.361c-0.21832,0.29165 -0.56376,0.46027 -0.928,0.453c-0.03235,0.00024 -0.06469,-0.00043 -0.097,-0.002c-0.41933,-0.024 -0.738,-0.20333 -0.956,-0.538c-0.0909,-0.14349 -0.16125,-0.299 -0.209,-0.462c-0.09864,-0.32393 -0.17252,-0.65488 -0.221,-0.99c-0.05933,-0.41333 -0.08841,-0.83044 -0.087,-1.248c-0.00005,-0.14538 0.00296,-0.29075 0.009,-0.436c0.01,-0.23467 0.028,-0.45533 0.054,-0.662c0.02619,-0.21211 0.06493,-0.42248 0.116,-0.63c0.11867,-0.47667 0.29433,-0.838 0.527,-1.084c0.23267,-0.246 0.509,-0.369 0.829,-0.369c0.344,0 0.632,0.124 0.864,0.372z"/></g></g></svg>