<svg version="1.1" xmlns="http://www.w3.org/2000/svg" xmlns:xlink="http://www.w3.org/1999/xlink" width="23.308" height="8.16208" viewBox="0,0,23.308,8.16208"><g transform="translate(-228.5015,-175.9865)"><g fill="#ffffff" fill-rule="evenodd" stroke="#000000" stroke-width="0" stroke-linecap="round" stroke-miterlimit="10"><path d="M233.7685,175.9865h1.131v8.004h-1.476l-2.532,-4.342c-0.40267,-0.712 -0.69033,-1.233 -0.863,-1.563c-0.01409,-0.02695 -0.02809,-0.05395 -0.042,-0.081c-0.09628,-0.18805 -0.18273,-0.38098 -0.259,-0.578c-0.0671,-0.17315 -0.12813,-0.34859 -0.183,-0.526c0.066,0.87867 0.099,1.88633 0.099,3.023v4.067h-1.142v-8.004h1.558l2.725,4.717c0.14517,0.25114 0.28586,0.50485 0.422,0.761c0.262,0.49667 0.46233,0.927 0.601,1.291c0.02979,0.07903 0.05779,0.15871 0.084,0.239c-0.04133,-0.43733 -0.06833,-0.75733 -0.081,-0.96c-0.00273,-0.03931 -0.00506,-0.07864 -0.007,-0.118c-0.00733,-0.31267 -0.014,-0.62133 -0.02,-0.926c-0.00099,-0.05333 -0.00199,-0.10667 -0.003,-0.16c-0.004,-0.21267 -0.007,-0.35067 -0.009,-0.414c-0.002,-0.07333 -0.003,-0.24733 -0.003,-0.522c0,-0.01967 0,-0.03933 0,-0.059z"/><path d="M242.0275,182.6665c-0.24736,0.45971 -0.62152,0.83873 -1.078,1.092c-0.46267,0.26 -0.98333,0.39 -1.562,0.39c-0.33135,0.00236 -0.66102,-0.04724 -0.977,-0.147c-0.19444,-0.06263 -0.38152,-0.14612 -0.558,-0.249c-0.45166,-0.26231 -0.82091,-0.64577 -1.066,-1.107c-0.24755,-0.45911 -0.38,-0.97144 -0.386,-1.493c-0.00061,-0.02666 -0.00095,-0.05333 -0.001,-0.08c0,-0.45333 0.07333,-0.86833 0.22,-1.245c0.14018,-0.36738 0.35349,-0.70249 0.627,-0.985c0.27229,-0.27963 0.59948,-0.49991 0.961,-0.647c0.35204,-0.14393 0.72774,-0.22124 1.108,-0.228c0.028,-0.00067 0.056,-0.001 0.084,-0.001c0.31007,-0.00138 0.61879,0.04104 0.917,0.126c0.09622,0.0276 0.191,0.05997 0.284,0.097c0.36432,0.14373 0.69393,0.36325 0.967,0.644c0.27591,0.28523 0.48943,0.62477 0.627,0.997c0.12264,0.32878 0.19381,0.67451 0.211,1.025c0.00397,0.07227 0.00597,0.14463 0.006,0.217c0.00181,0.31805 -0.03922,0.6349 -0.122,0.942c-0.06177,0.22675 -0.14969,0.44556 -0.262,0.652zM241.2455,181.3665c-0.02467,0.29607 -0.10223,0.58531 -0.229,0.854c-0.02923,0.06176 -0.06127,0.12216 -0.096,0.181c-0.1402,0.241 -0.33383,0.44661 -0.566,0.601c-0.27936,0.1852 -0.60784,0.28239 -0.943,0.279c-0.01134,-0.00024 -0.02267,-0.00057 -0.034,-0.001c-0.33063,-0.00091 -0.65382,-0.09821 -0.93,-0.28c-0.12599,-0.0835 -0.24062,-0.183 -0.341,-0.296c-0.13074,-0.1487 -0.2389,-0.31582 -0.321,-0.496c-0.07113,-0.15355 -0.12609,-0.31408 -0.164,-0.479c-0.04976,-0.21949 -0.07425,-0.44395 -0.073,-0.669c-0.00061,-0.17321 0.01344,-0.34616 0.042,-0.517c0.0621,-0.39838 0.23071,-0.77257 0.488,-1.083c0.02985,-0.03568 0.06086,-0.07037 0.093,-0.104c0.31933,-0.34448 0.77035,-0.53653 1.24,-0.528c0.01633,-0.00021 0.03267,-0.00021 0.049,0c0.23783,0.00442 0.47188,0.06038 0.686,0.164c0.22677,0.11108 0.42671,0.27008 0.586,0.466c0.166,0.20067 0.295,0.44367 0.387,0.729c0.01493,0.04696 0.0286,0.09431 0.041,0.142c0.06527,0.25007 0.09788,0.50755 0.097,0.766c0.00006,0.09047 -0.00395,0.18089 -0.012,0.271z"/><path d="M243.8415,182.7075h1.283v1.283h-1.283z"/><path d="M246.6945,176.0445h5.115v0.95l-3,6.996h-1.271l2.385,-5.449c0.12343,-0.27093 0.24743,-0.5416 0.372,-0.812c0.07499,-0.1631 0.15367,-0.32448 0.236,-0.484c0.04751,-0.09246 0.09652,-0.18413 0.147,-0.275c-0.11933,0 -0.27767,0.00467 -0.475,0.014c-0.06435,0.00309 -0.12868,0.00642 -0.193,0.01h-3.316z"/></g></g></svg>