<svg version="1.1" xmlns="http://www.w3.org/2000/svg" xmlns:xlink="http://www.w3.org/1999/xlink" width="23.34306" height="8.32027" viewBox="0,0,23.34306,8.32027"><g transform="translate(-228.5015,-175.83933)"><g fill="#ffffff" fill-rule="evenodd" stroke="#000000" stroke-width="0" stroke-linecap="round" stroke-miterlimit="10"><path d="M233.7685,175.9975h1.131v8.004h-1.476l-2.532,-4.342c-0.40267,-0.712 -0.69033,-1.23267 -0.863,-1.562c-0.01409,-0.02695 -0.02809,-0.05395 -0.042,-0.081c-0.09631,-0.18838 -0.18276,-0.38164 -0.259,-0.579c-0.0671,-0.17315 -0.12813,-0.34859 -0.183,-0.526c0.066,0.87933 0.099,1.88733 0.099,3.024v4.066h-1.142v-8.004h1.558l2.725,4.717c0.14518,0.25147 0.28587,0.50551 0.422,0.762c0.262,0.49667 0.46233,0.927 0.601,1.291c0.02977,0.0787 0.05778,0.15805 0.084,0.238c-0.04133,-0.43733 -0.06833,-0.757 -0.081,-0.959c-0.00274,-0.03964 -0.00507,-0.07931 -0.007,-0.119c-0.00733,-0.31267 -0.014,-0.62133 -0.02,-0.926c-0.00099,-0.053 -0.00199,-0.106 -0.003,-0.159c-0.004,-0.21333 -0.007,-0.35167 -0.009,-0.415c-0.002,-0.07333 -0.003,-0.24733 -0.003,-0.522c0,-0.01933 0,-0.03867 0,-0.058z"/><path d="M242.0275,182.6775c-0.24721,0.46008 -0.62138,0.83946 -1.078,1.093c-0.46267,0.25933 -0.98333,0.389 -1.562,0.389c-0.3313,0.00269 -0.66096,-0.04658 -0.977,-0.146c-0.19444,-0.06263 -0.38152,-0.14612 -0.558,-0.249c-0.45166,-0.26231 -0.82091,-0.64577 -1.066,-1.107c-0.24755,-0.45911 -0.38,-0.97144 -0.386,-1.493c-0.00062,-0.027 -0.00096,-0.054 -0.001,-0.081c0,-0.45267 0.07333,-0.86767 0.22,-1.245c0.1403,-0.36703 0.3536,-0.70178 0.627,-0.984c0.2722,-0.27999 0.59939,-0.50061 0.961,-0.648c0.3521,-0.14359 0.7278,-0.22056 1.108,-0.227c0.028,-0.00067 0.056,-0.001 0.084,-0.001c0.31003,-0.00171 0.61874,0.04037 0.917,0.125c0.09624,0.02793 0.19102,0.06063 0.284,0.098c0.36432,0.14373 0.69393,0.36325 0.967,0.644c0.27579,0.28494 0.48931,0.62412 0.627,0.996c0.12274,0.3291 0.19391,0.67518 0.211,1.026c0.00395,0.07193 0.00596,0.14396 0.006,0.216c0.0019,0.31839 -0.03913,0.63558 -0.122,0.943c-0.06184,0.22641 -0.14976,0.44487 -0.262,0.651zM241.2455,181.3785c-0.02467,0.29607 -0.10223,0.58531 -0.229,0.854c-0.02923,0.06176 -0.06127,0.12216 -0.096,0.181c-0.1402,0.241 -0.33383,0.44661 -0.566,0.601c-0.27948,0.18485 -0.60794,0.28168 -0.943,0.278c-0.01133,0.00009 -0.02267,0.00009 -0.034,0c-0.33073,-0.00121 -0.65393,-0.09886 -0.93,-0.281c-0.12599,-0.0835 -0.24062,-0.183 -0.341,-0.296c-0.13066,-0.14839 -0.23881,-0.31517 -0.321,-0.495c-0.07119,-0.15387 -0.12616,-0.31474 -0.164,-0.48c-0.04968,-0.21916 -0.07417,-0.44328 -0.073,-0.668c-0.00067,-0.17354 0.01338,-0.34683 0.042,-0.518c0.06227,-0.39803 0.23087,-0.77186 0.488,-1.082c0.02985,-0.03568 0.06086,-0.07037 0.093,-0.104c0.31916,-0.34485 0.7702,-0.53727 1.24,-0.529c0.01634,0.00012 0.03267,0.00046 0.049,0.001c0.23776,0.00411 0.4718,0.05972 0.686,0.163c0.22677,0.11108 0.42671,0.27008 0.586,0.466c0.166,0.20133 0.295,0.44467 0.387,0.73c0.01492,0.04663 0.02859,0.09364 0.041,0.141c0.06536,0.2504 0.09796,0.50821 0.097,0.767c0.00006,0.09047 -0.00395,0.18089 -0.012,0.271z"/><path d="M243.8415,182.7185h1.283v1.283h-1.283z"/><path d="M246.9645,183.8675l0.14,-1.02c0.22376,0.10523 0.45674,0.18958 0.696,0.252c0.24713,0.06499 0.50147,0.09858 0.757,0.1c0.22555,0.00255 0.45016,-0.02949 0.666,-0.095c0.40825,-0.12798 0.75118,-0.40892 0.957,-0.784c0.208,-0.36334 0.36067,-0.75565 0.453,-1.164c0.07025,-0.30709 0.11474,-0.61951 0.133,-0.934c-0.36835,0.49438 -0.93316,0.80452 -1.548,0.85c-0.08346,0.00745 -0.16721,0.01112 -0.251,0.011c-0.25803,0.00208 -0.5149,-0.03466 -0.762,-0.109c-0.17181,-0.05318 -0.33664,-0.1267 -0.491,-0.219c-0.36733,-0.21867 -0.65267,-0.52533 -0.856,-0.92c-0.15452,-0.30421 -0.25116,-0.63448 -0.285,-0.974c-0.01327,-0.12222 -0.01995,-0.24506 -0.02,-0.368c0,-0.37467 0.06267,-0.725 0.188,-1.051c0.11979,-0.31823 0.30203,-0.60927 0.536,-0.856c0.2293,-0.24179 0.50794,-0.43141 0.817,-0.556c0.28002,-0.1127 0.57738,-0.1763 0.879,-0.188c0.04497,-0.002 0.08998,-0.003 0.135,-0.003c0.29648,-0.00318 0.59166,0.03966 0.875,0.127c0.46983,0.1493 0.87701,0.44994 1.158,0.855c0.34467,0.48067 0.56267,1.119 0.654,1.915c0.03385,0.30649 0.05021,0.61465 0.049,0.923c0,0.76733 -0.07567,1.43867 -0.227,2.014c-0.04011,0.15219 -0.0875,0.30236 -0.142,0.45c-0.09579,0.26564 -0.22196,0.51933 -0.376,0.756c-0.192,0.29463 -0.43921,0.54932 -0.728,0.75c-0.32406,0.22009 -0.69058,0.36997 -1.076,0.44c-0.24331,0.04576 -0.49043,0.0682 -0.738,0.067c-0.08803,0.00026 -0.17605,-0.00141 -0.264,-0.005c-0.08333,-0.004 -0.162,-0.00967 -0.236,-0.017c-0.005,-0.00032 -0.01,-0.00066 -0.015,-0.001c-0.09481,-0.01013 -0.18921,-0.02381 -0.283,-0.041c-0.06929,-0.01215 -0.13831,-0.02582 -0.207,-0.041c-0.08078,-0.01852 -0.16113,-0.03886 -0.241,-0.061c-0.08133,-0.022 -0.16667,-0.047 -0.256,-0.075c-0.03038,-0.00918 -0.06071,-0.01851 -0.091,-0.028zM249.1555,176.7775c-0.18364,-0.00198 -0.36573,0.03376 -0.535,0.105c-0.06975,0.03037 -0.13667,0.06685 -0.2,0.109c-0.17902,0.11853 -0.32878,0.27616 -0.438,0.461c-0.02708,0.04518 -0.05211,0.09156 -0.075,0.139c-0.09543,0.19901 -0.15501,0.41329 -0.176,0.633c-0.00798,0.07774 -0.01199,0.15585 -0.012,0.234c-0.00166,0.20166 0.02631,0.40247 0.083,0.596c0.06687,0.22479 0.18033,0.43297 0.333,0.611c0.12402,0.14866 0.27761,0.26989 0.451,0.356c0.1847,0.08843 0.38724,0.13324 0.592,0.131c0.21473,0.00291 0.42701,-0.04579 0.619,-0.142c0.15349,-0.07962 0.29056,-0.18751 0.404,-0.318c0.27133,-0.30667 0.407,-0.69067 0.407,-1.152c0.00181,-0.25993 -0.04324,-0.51805 -0.133,-0.762c-0.01649,-0.04427 -0.0345,-0.08797 -0.054,-0.131c-0.06198,-0.13903 -0.14273,-0.26891 -0.24,-0.386c-0.08189,-0.09779 -0.17677,-0.18392 -0.282,-0.256c-0.21856,-0.15089 -0.47842,-0.23052 -0.744,-0.228z"/></g></g></svg>