<svg version="1.1" xmlns="http://www.w3.org/2000/svg" xmlns:xlink="http://www.w3.org/1999/xlink" width="4.248" height="6.74804" viewBox="0,0,4.248,6.74804"><g transform="translate(-237.846,-176.57696)"><g fill="#ffffff" fill-rule="evenodd" stroke="#ffffff" stroke-width="0" stroke-linecap="round" stroke-miterlimit="10"><path d="M238.105,177.837l-0.102,-0.859c0.08715,-0.03627 0.17483,-0.07127 0.263,-0.105c0.096,-0.03667 0.18733,-0.06933 0.274,-0.098c0.03819,-0.01277 0.07653,-0.0251 0.115,-0.037c0.11257,-0.03491 0.22669,-0.06461 0.342,-0.089c0.06693,-0.01387 0.1343,-0.02554 0.202,-0.035c0.09061,-0.01283 0.18167,-0.02217 0.273,-0.028c0.10088,-0.0062 0.20193,-0.0092 0.303,-0.009c0.21063,-0.00105 0.42079,0.02006 0.627,0.063c0.17434,0.03672 0.34405,0.09273 0.506,0.167c0.18072,0.0814 0.34771,0.19037 0.495,0.323c0.10546,0.09652 0.1982,0.20607 0.276,0.326c0.18157,0.2793 0.27687,0.60588 0.274,0.939c0.00001,0.00267 0.00001,0.00533 0,0.008c0,0.212 -0.02933,0.42133 -0.088,0.628c-0.0315,0.10907 -0.07094,0.21569 -0.118,0.319c-0.04267,0.096 -0.09333,0.194 -0.152,0.294c-0.00824,0.01472 -0.01657,0.02939 -0.025,0.044c-0.07316,0.12135 -0.15157,0.23946 -0.235,0.354c-0.09223,0.12707 -0.18896,0.25082 -0.29,0.371c-0.212,0.252 -0.48567,0.549 -0.821,0.891c-0.18447,0.18498 -0.37285,0.36602 -0.565,0.543c-0.32067,0.29467 -0.61567,0.54 -0.885,0.736c0.04927,-0.01028 0.09899,-0.01829 0.149,-0.024c0.09867,-0.01133 0.21767,-0.01867 0.357,-0.022c0.06732,-0.00187 0.13466,-0.00287 0.202,-0.003h2.612v0.791h-4.248v-1.01c0.25606,-0.21785 0.50942,-0.43887 0.76,-0.663c0.07999,-0.07164 0.15966,-0.14364 0.239,-0.216c0.22433,-0.20505 0.44243,-0.41681 0.654,-0.635c0.10163,-0.10476 0.20197,-0.21077 0.301,-0.318c0.1939,-0.20844 0.3749,-0.42851 0.542,-0.659c0.09419,-0.1306 0.18294,-0.26505 0.266,-0.403c0.216,-0.35933 0.324,-0.687 0.324,-0.983c0,-0.316 -0.12267,-0.57567 -0.368,-0.779c-0.17339,-0.14176 -0.38037,-0.23647 -0.601,-0.275c-0.11182,-0.02054 -0.22531,-0.03058 -0.339,-0.03c-0.47533,0 -0.98167,0.161 -1.519,0.483z"/></g></g></svg>