<svg version="1.1" xmlns="http://www.w3.org/2000/svg" xmlns:xlink="http://www.w3.org/1999/xlink" width="10.934" height="8.09801" viewBox="0,0,10.934,8.09801"><g transform="translate(-234.802,-175.89249)"><g fill="#ffffff" fill-rule="evenodd" stroke="#000000" stroke-width="0" stroke-linecap="round" stroke-miterlimit="10"><path d="M236.771,175.9865h1.055v8.004h-1.137v-4.858c0.00184,-0.15166 0.0035,-0.30333 0.005,-0.455c0.00152,-0.13833 0.00285,-0.27666 0.004,-0.415c0.00042,-0.07067 0.00076,-0.14133 0.001,-0.212c0.00133,-0.228 0.002,-0.5 0.002,-0.816c-0.08298,0.10457 -0.17214,0.20408 -0.267,0.298c-0.02103,0.02098 -0.04236,0.04165 -0.064,0.062c-0.104,0.09733 -0.248,0.22167 -0.432,0.373c-0.01997,0.01637 -0.03997,0.0327 -0.06,0.049c-0.04637,0.03762 -0.0927,0.07529 -0.139,0.113c-0.106,0.08733 -0.189,0.15633 -0.249,0.207c-0.01638,0.01327 -0.03271,0.02661 -0.049,0.04l-0.639,-0.755z"/><path d="M240.949,177.4045l-0.123,-1.031c0.10472,-0.04353 0.21006,-0.08553 0.316,-0.126c0.11533,-0.044 0.225,-0.083 0.329,-0.117c0.0455,-0.01552 0.09116,-0.03052 0.137,-0.045c0.1353,-0.04164 0.27244,-0.07701 0.411,-0.106c0.08018,-0.01697 0.16089,-0.03131 0.242,-0.043c0.1092,-0.01523 0.21895,-0.02624 0.329,-0.033c0.12085,-0.0075 0.24191,-0.01117 0.363,-0.011c0.508,0 0.961,0.09167 1.359,0.275c0.21695,0.09812 0.41734,0.22936 0.594,0.389c0.12682,0.11571 0.23838,0.2471 0.332,0.391c0.2176,0.33532 0.33167,0.72728 0.328,1.127c0.00001,0.003 0.00001,0.006 0,0.009c0,0.254 -0.035,0.505 -0.105,0.753c-0.03792,0.13096 -0.08538,0.25897 -0.142,0.383c-0.05133,0.11533 -0.112,0.23333 -0.182,0.354c-0.01022,0.0174 -0.02055,0.03474 -0.031,0.052c-0.08779,0.14569 -0.18188,0.28749 -0.282,0.425c-0.11068,0.15242 -0.22675,0.30085 -0.348,0.445c-0.254,0.30267 -0.582,0.659 -0.984,1.069c-0.22137,0.22177 -0.44742,0.43882 -0.678,0.651c-0.38533,0.354 -0.73933,0.64867 -1.062,0.884c0.05887,-0.01205 0.11827,-0.02139 0.178,-0.028c0.17267,-0.02 0.39633,-0.03 0.671,-0.03h3.135v0.949h-5.098v-1.213c0.30728,-0.26155 0.6113,-0.52691 0.912,-0.796c0.09605,-0.0859 0.19172,-0.17224 0.287,-0.259c0.26891,-0.24574 0.53036,-0.49952 0.784,-0.761c0.12189,-0.12552 0.24223,-0.25253 0.361,-0.381c0.23293,-0.2505 0.45033,-0.51499 0.651,-0.792c0.11295,-0.15653 0.21937,-0.31767 0.319,-0.483c0.0842,-0.13818 0.15839,-0.28221 0.222,-0.431c0.066,-0.15733 0.11233,-0.30867 0.139,-0.454c0.0187,-0.09724 0.0284,-0.19599 0.029,-0.295c0.00719,-0.32698 -0.12519,-0.64154 -0.364,-0.865c-0.02546,-0.0243 -0.05182,-0.04764 -0.079,-0.07c-0.20802,-0.17007 -0.45632,-0.28372 -0.721,-0.33c-0.13425,-0.02466 -0.27051,-0.03671 -0.407,-0.036c-0.30005,0.00246 -0.59792,0.05137 -0.883,0.145c-0.23733,0.07533 -0.48033,0.18033 -0.729,0.315c-0.07088,0.03844 -0.1409,0.07845 -0.21,0.12z"/></g></g></svg>