<svg version="1.1" xmlns="http://www.w3.org/2000/svg" xmlns:xlink="http://www.w3.org/1999/xlink" width="11.56009" height="8.21506" viewBox="0,0,11.56009,8.21506"><g transform="translate(-234.3345,-175.8805)"><g fill="#ffffff" fill-rule="evenodd" stroke="#000000" stroke-width="0" stroke-linecap="round" stroke-miterlimit="10"><path d="M234.3345,183.9905v-8.004h1.898c0.37533,0 0.62533,0.003 0.75,0.009c0.06543,0.00318 0.13078,0.00784 0.196,0.014c0.07148,0.00664 0.14283,0.01464 0.214,0.024c0.22771,0.02919 0.45123,0.0849 0.666,0.166c0.28754,0.10814 0.5482,0.27736 0.764,0.496c0.33317,0.33803 0.5218,0.7924 0.526,1.267c0.00073,0.02499 0.00106,0.05 0.001,0.075c0.00163,0.18061 -0.01954,0.36069 -0.063,0.536c-0.06493,0.26363 -0.19885,0.50523 -0.388,0.7c-0.17316,0.17503 -0.37553,0.31852 -0.598,0.424c-0.17,0.08267 -0.35867,0.15067 -0.566,0.204c-0.02991,0.0077 -0.05991,0.01503 -0.09,0.022c0.20919,0.02766 0.4154,0.07453 0.616,0.14c0.24,0.08 0.452,0.186 0.636,0.318c0.0555,0.03989 0.1089,0.08261 0.16,0.128c0.23499,0.21079 0.39739,0.49043 0.464,0.799c0.0398,0.17416 0.05927,0.35235 0.058,0.531c0,0.39067 -0.09567,0.74733 -0.287,1.07c-0.19199,0.32241 -0.47006,0.58491 -0.803,0.758c-0.1394,0.07417 -0.28621,0.1335 -0.438,0.177c-0.10553,0.03041 -0.2127,0.05478 -0.321,0.073c-0.19267,0.03267 -0.424,0.05433 -0.694,0.065c-0.1406,0.00546 -0.28129,0.00813 -0.422,0.008zM236.0745,180.3285h-0.598v2.689h0.873c0.21844,0.00094 0.43666,-0.01376 0.653,-0.044c0.23,-0.03333 0.44167,-0.08533 0.635,-0.156c0.05576,-0.02041 0.11079,-0.04276 0.165,-0.067c0.39867,-0.17733 0.598,-0.516 0.598,-1.016c0.00141,-0.14166 -0.01403,-0.28299 -0.046,-0.421c-0.08533,-0.352 -0.28967,-0.59267 -0.613,-0.722c-0.43933,-0.17533 -0.995,-0.263 -1.667,-0.263zM236.0625,176.9705h-0.586v2.426h0.815c0.21842,0.00133 0.43665,-0.01304 0.653,-0.043c0.51933,-0.07533 0.87933,-0.25167 1.08,-0.529c0.13014,-0.18785 0.19641,-0.41259 0.189,-0.641c0.00049,-0.09675 -0.00923,-0.19329 -0.029,-0.288c-0.02667,-0.126 -0.07267,-0.23733 -0.138,-0.334c-0.012,-0.01781 -0.02467,-0.03516 -0.038,-0.052c-0.13685,-0.17189 -0.32008,-0.30099 -0.528,-0.372c-0.18082,-0.06473 -0.36832,-0.10901 -0.559,-0.132c-0.02728,-0.00314 -0.05462,-0.00581 -0.082,-0.008c-0.08622,-0.00697 -0.17257,-0.0123 -0.259,-0.016c-0.07733,-0.004 -0.15933,-0.00667 -0.246,-0.008c-0.09065,-0.0019 -0.18133,-0.0029 -0.272,-0.003z"/><path d="M241.2135,177.2105l-0.082,-0.984c0.30545,-0.1125 0.61992,-0.19881 0.94,-0.258c0.24712,-0.04474 0.49706,-0.07214 0.748,-0.082c0.08761,-0.00385 0.1753,-0.00585 0.263,-0.006c0.76133,0 1.40567,0.171 1.933,0.513c0.42762,0.27178 0.70924,0.72251 0.766,1.226c0.01721,0.12291 0.02557,0.24689 0.025,0.371c0.00795,0.4569 -0.17167,0.8971 -0.497,1.218c-0.01087,0.01113 -0.02187,0.02213 -0.033,0.033c-0.2651,0.25341 -0.59363,0.43064 -0.951,0.513c-0.14291,0.03483 -0.28837,0.05824 -0.435,0.07c0.19146,0.00995 0.38125,0.0408 0.566,0.092c0.17111,0.04802 0.33542,0.11758 0.489,0.207c0.29383,0.1687 0.5359,0.41458 0.7,0.711c0.13569,0.24669 0.21749,0.51936 0.24,0.8c0.00621,0.07216 0.00922,0.14457 0.009,0.217c0.00226,0.24679 -0.03834,0.4921 -0.12,0.725c-0.05883,0.1641 -0.13956,0.31951 -0.24,0.462c-0.24,0.34133 -0.581,0.603 -1.023,0.785c-0.24358,0.09839 -0.49754,0.16884 -0.757,0.21c-0.234,0.03867 -0.48333,0.05933 -0.748,0.062c-0.01767,0.00008 -0.03533,0.00008 -0.053,0c-0.69933,0 -1.387,-0.10733 -2.063,-0.322l0.047,-1.066c0.14118,0.05939 0.2839,0.11508 0.428,0.167c0.14133,0.05133 0.27533,0.095 0.402,0.131c0.0725,0.02058 0.14552,0.03925 0.219,0.056c0.29786,0.06818 0.60243,0.10273 0.908,0.103c0.18061,0.00082 0.36073,-0.01864 0.537,-0.058c0.12842,-0.029 0.25369,-0.07054 0.374,-0.124c0.13358,-0.05848 0.25896,-0.13412 0.373,-0.225c0.10012,-0.08042 0.18862,-0.17431 0.263,-0.279c0.15099,-0.2099 0.2312,-0.46244 0.229,-0.721c0.00189,-0.15331 -0.01935,-0.30603 -0.063,-0.453c-0.096,-0.30867 -0.30133,-0.53567 -0.616,-0.681c-0.00632,-0.00271 -0.01265,-0.00538 -0.019,-0.008c-0.25966,-0.11405 -0.53238,-0.19566 -0.812,-0.243c-0.25933,-0.04533 -0.53733,-0.068 -0.834,-0.068c-0.06301,0.00004 -0.12602,0.00104 -0.189,0.003c-0.06,0.002 -0.11667,0.00467 -0.17,0.008c-0.00333,0.00033 -0.00667,0.00066 -0.01,0.001v-0.973c0.3045,0.00075 0.60886,-0.01327 0.912,-0.042c0.10423,-0.01033 0.20825,-0.02267 0.312,-0.037c0.22993,-0.02988 0.45469,-0.09112 0.668,-0.182c0.12394,-0.05343 0.24277,-0.11803 0.355,-0.193c0.29467,-0.19733 0.442,-0.48933 0.442,-0.876c0,-0.234 -0.06833,-0.442 -0.205,-0.624c-0.13667,-0.18133 -0.328,-0.323 -0.574,-0.425c-0.15275,-0.06201 -0.31266,-0.10468 -0.476,-0.127c-0.12192,-0.01705 -0.2449,-0.02541 -0.368,-0.025c-0.35585,0.00178 -0.71002,0.04883 -1.054,0.14c-0.25786,0.06775 -0.51052,0.15398 -0.756,0.258z"/></g></g></svg>