<svg version="1.1" xmlns="http://www.w3.org/2000/svg" xmlns:xlink="http://www.w3.org/1999/xlink" width="3.99002" height="6.7" viewBox="0,0,3.99002,6.7"><g transform="translate(-238.144,-176.694)"><g fill="#ffffff" fill-rule="evenodd" stroke="#ffffff" stroke-width="0" stroke-linecap="round" stroke-miterlimit="10"><path d="M238.232,176.694h3.701v0.791h-2.807l-0.03,1.241c-0.00002,0.02134 -0.00036,0.04267 -0.001,0.064c-0.002,0.07067 -0.007,0.174 -0.015,0.31c-0.00258,0.04434 -0.00525,0.08867 -0.008,0.133c0.23133,-0.06467 0.47867,-0.097 0.742,-0.097c0.21636,-0.00108 0.43222,0.02071 0.644,0.065c0.19564,0.04102 0.38543,0.10619 0.565,0.194c0.33701,0.16083 0.62088,0.41485 0.818,0.732c0.16015,0.26168 0.25673,0.55725 0.282,0.863c0.00718,0.07512 0.01085,0.15054 0.011,0.226c0.00076,0.18143 -0.01971,0.36233 -0.061,0.539c-0.02864,0.12155 -0.06883,0.24009 -0.12,0.354c-0.11946,0.26601 -0.29838,0.50105 -0.523,0.687c-0.16235,0.1343 -0.34236,0.24567 -0.535,0.331c-0.09361,0.04183 -0.18942,0.07855 -0.287,0.11c-0.20683,0.0664 -0.41996,0.11131 -0.636,0.134c-0.14481,0.01555 -0.29036,0.02323 -0.436,0.023c-0.10007,-0.00001 -0.20011,-0.00301 -0.3,-0.009c-0.06378,-0.00382 -0.12747,-0.00916 -0.191,-0.016c-0.15133,-0.016 -0.29867,-0.04033 -0.442,-0.073c-0.08433,-0.01938 -0.16804,-0.04139 -0.251,-0.066c-0.06978,-0.02056 -0.13913,-0.04256 -0.208,-0.066l0.03,-0.879c0.11276,0.04981 0.22716,0.09584 0.343,0.138c0.04311,0.01562 0.08645,0.03063 0.13,0.045c0.15333,0.05067 0.30067,0.08833 0.442,0.113c0.14437,0.02444 0.29057,0.03648 0.437,0.036c0.14601,0.0009 0.29173,-0.01283 0.435,-0.041c0.13583,-0.02709 0.26781,-0.07075 0.393,-0.13c0.14658,-0.06849 0.27995,-0.16225 0.394,-0.277c0.06199,-0.06276 0.11729,-0.1318 0.165,-0.206c0.13333,-0.20817 0.20286,-0.4508 0.2,-0.698c0.00078,-0.11488 -0.01266,-0.22942 -0.04,-0.341c-0.01862,-0.07432 -0.0444,-0.14666 -0.077,-0.216c-0.078,-0.166 -0.192,-0.30933 -0.342,-0.43c-0.15,-0.12 -0.32733,-0.21033 -0.532,-0.271c-0.13361,-0.03846 -0.27055,-0.06424 -0.409,-0.077c-0.08974,-0.00872 -0.17984,-0.01306 -0.27,-0.013c-0.2224,0.00118 -0.44414,0.0243 -0.662,0.069c-0.19936,0.04052 -0.3958,0.09431 -0.588,0.161z"/></g></g></svg>