<svg version="1.1" xmlns="http://www.w3.org/2000/svg" xmlns:xlink="http://www.w3.org/1999/xlink" width="4.951" height="6.67" viewBox="0,0,4.951,6.67"><g transform="translate(-237.524,-176.655)"><g fill="#ffffff" fill-rule="evenodd" stroke="#ffffff" stroke-width="0" stroke-linecap="round" stroke-miterlimit="10"><path d="M240.224,176.655h1.372v4.419h0.879v0.791h-0.879v1.46h-0.952v-1.46h-3.12v-0.791zM238.696,181.074h1.948v-2.636c0,-0.15 0.01067,-0.346 0.032,-0.588c0.00677,-0.07839 0.0141,-0.15672 0.022,-0.235c0.036,-0.35333 0.05567,-0.56567 0.059,-0.637c-0.05267,0.156 -0.114,0.313 -0.184,0.471c-0.05333,0.12067 -0.13167,0.27733 -0.235,0.47c-0.03328,0.06254 -0.06695,0.12487 -0.101,0.187c-0.1393,0.25139 -0.28164,0.50107 -0.427,0.749c-0.02127,0.0367 -0.04261,0.07337 -0.064,0.11l-0.64,1.079c-0.0388,0.06692 -0.07747,0.13392 -0.116,0.201c-0.03548,0.06158 -0.07082,0.12325 -0.106,0.185c-0.06667,0.11733 -0.131,0.22633 -0.193,0.327c-0.03836,0.06271 -0.07838,0.1244 -0.12,0.185c-0.03098,0.04449 -0.06265,0.0885 -0.095,0.132z"/></g></g></svg>