<svg version="1.1" xmlns="http://www.w3.org/2000/svg" xmlns:xlink="http://www.w3.org/1999/xlink" width="5.942" height="8.004" viewBox="0,0,5.942,8.004"><g transform="translate(-237.029,-175.9865)"><g fill="#ffffff" fill-rule="evenodd" stroke="#000000" stroke-width="0" stroke-linecap="round" stroke-miterlimit="10"><path d="M240.27,175.9865h1.646v5.303h1.055v0.949h-1.055v1.752h-1.142v-1.752h-3.745v-0.949zM238.436,181.2895h2.338v-3.164c0.00011,-0.06469 0.00144,-0.12936 0.004,-0.194c0.00533,-0.14533 0.01633,-0.31567 0.033,-0.511c0.00831,-0.0944 0.01731,-0.18873 0.027,-0.283c0.00742,-0.07332 0.01476,-0.14666 0.022,-0.22c0.026,-0.26067 0.04167,-0.433 0.047,-0.517c0.00041,-0.009 0.00075,-0.018 0.001,-0.027c-0.06397,0.19171 -0.13705,0.38026 -0.219,0.565c-0.02347,0.0524 -0.04781,0.10441 -0.073,0.156c-0.082,0.16933 -0.19267,0.38 -0.332,0.632c-0.16668,0.30206 -0.33703,0.60208 -0.511,0.9c-0.02593,0.04371 -0.05193,0.08738 -0.078,0.131l-0.767,1.295c-0.098,0.168 -0.187,0.32233 -0.267,0.463c-0.03882,0.0683 -0.07815,0.1363 -0.118,0.204c-0.03713,0.06332 -0.07479,0.12632 -0.113,0.189c-0.07467,0.12067 -0.16067,0.24767 -0.258,0.381z"/></g></g></svg>