<svg version="1.1" xmlns="http://www.w3.org/2000/svg" xmlns:xlink="http://www.w3.org/1999/xlink" width="95.33743" height="17.53002" viewBox="0,0,95.33743,17.53002"><g transform="translate(-192.33127,-171.235)"><g fill="#ffffff" stroke="#000000" stroke-width="0" stroke-linecap="round" stroke-miterlimit="10"><path d="M238.94199,188.68732v-7.78463h9.10471v7.72639h-0.56298v-7.16341h-7.97876v7.22165zM239.23318,184.59117h8.58056v-0.58239h-8.58056zM239.23318,187.85256h8.58056v-0.56298h-8.58056zM232.49686,188.70673v-16.63697h4.21263v0.56298h-3.63024v16.074zM236.53477,172.20565c-0.06097,0.18287 -0.12309,0.36536 -0.18637,0.54745c-0.06948,0.19968 -0.14001,0.39899 -0.2116,0.59792c-0.03732,0.10491 -0.07485,0.20974 -0.1126,0.31449c-0.11917,0.32617 -0.24018,0.65167 -0.36302,0.97648c-0.16825,0.4465 -0.3462,0.89947 -0.53386,1.35891c-0.18766,0.45944 -0.37855,0.91565 -0.57268,1.36862c0.19826,0.22444 0.38799,0.45627 0.5688,0.69499c0.22001,0.2899 0.40767,0.57139 0.56298,0.84447c0.15595,0.26704 0.28721,0.54775 0.39214,0.83864c0.01794,0.05161 0.03541,0.10338 0.05242,0.1553c0.10483,0.31449 0.18572,0.61669 0.24266,0.90659c0.06038,0.29932 0.0948,0.60329 0.10289,0.90853c0,0.31061 -0.03236,0.61475 -0.09707,0.91241c-0.015,0.06829 -0.03379,0.1357 -0.0563,0.2019c-0.02847,0.08671 -0.06212,0.16307 -0.10095,0.22907c-0.04489,0.07945 -0.10337,0.15041 -0.17278,0.20966c-0.04689,0.03493 -0.09771,0.06425 -0.15142,0.08736c-0.07248,0.03106 -0.15272,0.05371 -0.24072,0.06795c-0.08217,0.01316 -0.16527,0.01965 -0.24849,0.01941c-0.1553,0.01294 -0.33973,0.01618 -0.55327,0.00971c-0.05372,-0.00176 -0.10743,-0.0037 -0.16113,-0.00582c-0.16961,-0.0062 -0.33916,-0.01396 -0.50862,-0.0233c0.01452,0.02604 0.02812,0.05259 0.04077,0.07959c0.03444,0.07133 0.063,0.14534 0.08542,0.22131c0.00953,0.03287 0.01859,0.06588 0.02718,0.09901c0.01812,0.06859 0.03171,0.12942 0.04077,0.18248c0.01617,0.00136 0.03235,0.00266 0.04853,0.00388c0.11389,0.00647 0.23166,0.00971 0.35332,0.00971c0.0699,-0.00024 0.1398,-0.00153 0.20966,-0.00388c0.21354,-0.00647 0.41091,-0.01618 0.5921,-0.02912c0.02527,-0.00369 0.0505,-0.00757 0.07571,-0.01165c0.07377,-0.01165 0.14301,-0.02459 0.20772,-0.03883c0.06458,-0.01333 0.12868,-0.02887 0.19219,-0.04659c0.02482,-0.007 0.04943,-0.01477 0.07377,-0.0233c0.10228,-0.03565 0.19851,-0.08671 0.28537,-0.15142c0.06623,-0.05098 0.12618,-0.10963 0.1786,-0.17472c0.06989,-0.08671 0.13201,-0.18831 0.18637,-0.30478c0.04916,-0.1085 0.08941,-0.22082 0.12036,-0.33585c0.09222,-0.33582 0.13859,-0.68258 0.13783,-1.03083c0.00008,-0.04466 -0.00057,-0.08931 -0.00194,-0.13395c0,-0.6471 -0.12295,-1.33303 -0.36885,-2.05778c-0.07743,-0.22447 -0.17086,-0.4431 -0.27955,-0.65422c-0.14107,-0.27825 -0.31514,-0.56621 -0.52221,-0.86388c-0.2103,-0.30066 -0.43511,-0.59091 -0.67363,-0.8697c0.23296,-0.54357 0.46268,-1.10331 0.68916,-1.67923c0.22649,-0.57592 0.4465,-1.14537 0.66004,-1.70835c0.10405,-0.27394 0.20694,-0.54831 0.30867,-0.82311c0.0957,-0.25904 0.19018,-0.51853 0.28343,-0.77846l-0.38826,-0.27178l-0.09707,0.03883h-0.11648zM197.57281,183.42639v-2.95078h12.83202v2.89254h-0.58239v-2.32956h-11.66724v2.3878zM212.40437,187.77491v-0.56298h17.14171v0.56298zM270.79877,178.18487v-0.56298h16.86993v0.56298zM251.48281,179.52437v-0.56298h16.69521v0.56298zM221.41202,187.44489v-16.09341h0.56298v16.09341zM221.81969,178.74785h7.04693v-0.58239h-7.04693zM252.20109,173.7587v-0.56298h15.25865v0.56298zM278.93285,187.67784v-9.823h0.58239v9.823c0.00001,0.07199 -0.00387,0.14392 -0.01165,0.21548c-0.01941,0.17601 -0.06406,0.31126 -0.13395,0.40573c-0.04267,0.05509 -0.09456,0.10238 -0.15336,0.13977c-0.09318,0.06212 -0.21354,0.1126 -0.36108,0.15142c-0.06677,0.01453 -0.13413,0.02619 -0.2019,0.03494c-0.22778,0.02977 -0.5358,0.04724 -0.92406,0.05242c-0.14042,0.00161 -0.28084,0.0029 -0.42126,0.00388c-0.3119,0.00259 -0.6704,0.00453 -1.07548,0.00582c-0.19348,0.00019 -0.38697,0.00019 -0.58045,0c-0.00906,-0.05565 -0.02718,-0.12036 -0.05436,-0.19413c-0.01034,-0.02936 -0.02135,-0.05849 -0.033,-0.08736c-0.03778,-0.0924 -0.08459,-0.18083 -0.13977,-0.26402c-0.00821,-0.01243 -0.01663,-0.02473 -0.02524,-0.03688c0.51768,0.01294 0.98683,0.02265 1.40745,0.02912c0.42062,0.00647 0.77652,0.00647 1.06772,0c0.2912,-0.00647 0.49503,-0.00971 0.61151,-0.00971c0.03899,-0.00295 0.07785,-0.00748 0.11648,-0.01359c0.07636,-0.01165 0.13719,-0.02912 0.18248,-0.05242c0.02209,-0.01033 0.0424,-0.02409 0.06018,-0.04077c0.04789,-0.04789 0.07636,-0.1346 0.08542,-0.26013c0.00151,-0.0265 0.00215,-0.05305 0.00194,-0.07959zM243.75642,177.99074v-6.52278h0.58239v6.52278c-0.00003,0.04741 0.00322,0.09476 0.00971,0.14172c0.01424,0.10742 0.04724,0.18831 0.09901,0.24266c0.01124,0.01212 0.02359,0.02317 0.03688,0.033c0.02863,0.0195 0.06005,0.03455 0.09318,0.04465c0.12295,0.04141 0.32161,0.06212 0.59598,0.06212h0.50474h0.81535h0.82505h0.55327c0.20707,0 0.35914,-0.0453 0.45621,-0.13589c0.0314,-0.0305 0.05762,-0.06591 0.07765,-0.10483c0.04012,-0.07377 0.07248,-0.17213 0.09707,-0.29508c0.01174,-0.05723 0.02145,-0.11486 0.02912,-0.17278c0.01085,-0.08197 0.01991,-0.16418 0.02718,-0.24655c0.01682,-0.18766 0.02977,-0.4135 0.03883,-0.67752c0.00483,-0.12874 0.00871,-0.25752 0.01165,-0.38632c0.04828,0.03985 0.10029,0.07496 0.1553,0.10483c0.04091,0.02239 0.08304,0.04249 0.12618,0.06018c0.10224,0.04271 0.19672,0.07636 0.28343,0.10095c0.00582,0.00197 0.01164,0.00391 0.01747,0.00582c-0.00588,0.14634 -0.01364,0.2926 -0.0233,0.43873c-0.022,0.31579 -0.05112,0.58498 -0.08736,0.80758c-0.01018,0.06368 -0.02184,0.12711 -0.03494,0.19025c-0.06989,0.32743 -0.18507,0.55715 -0.34555,0.68916c-0.00449,0.0033 -0.00902,0.00653 -0.01359,0.00971c-0.16825,0.12942 -0.42062,0.19413 -0.75711,0.19413h-0.48533h-0.88329h-0.88329h-0.48533c-0.34555,0 -0.61992,-0.022 -0.82311,-0.066c-0.01689,-0.00362 -0.03371,-0.0075 -0.05047,-0.01165c-0.06981,-0.01686 -0.13706,-0.04297 -0.19995,-0.07765c-0.10127,-0.05561 -0.18371,-0.14007 -0.23684,-0.24266c-0.07895,-0.15272 -0.12101,-0.37208 -0.12618,-0.6581c-0.00013,-0.01682 -0.00013,-0.03365 0,-0.05047zM253.07468,176.51535v-0.56298h13.62795v0.56298zM272.50712,173.44809v-0.56298h13.5503v0.56298zM195.37913,188.68732v-12.73495l0.52415,-0.54357l0.03883,0.01941v13.2591zM197.74752,173.87517v-0.56298h12.52141v0.56298zM199.51411,178.9808v-3.66906h9.04648v3.66906zM207.97819,175.87472h-7.88169v2.52369h7.88169zM215.31632,187.44489v-11.64782h0.56298v11.64782zM197.53398,171.31265l0.56298,0.1553c-0.42709,1.08713 -0.92535,2.14838 -1.4948,3.18374c-0.48364,0.88248 -1.01505,1.73792 -1.59187,2.56252c-0.07995,0.11391 -0.16084,0.22715 -0.24266,0.33973c-0.43164,0.59621 -0.89229,1.17088 -1.38027,1.72194c-0.21034,0.237 -0.42654,0.46873 -0.6484,0.69499c-0.01012,-0.01441 -0.02047,-0.02864 -0.03106,-0.04271c-0.01035,-0.01553 -0.022,-0.03171 -0.03494,-0.04853c-0.01343,-0.01823 -0.02702,-0.03635 -0.04077,-0.05436c-0.02319,-0.02985 -0.04648,-0.05962 -0.06989,-0.0893c-0.02513,-0.03179 -0.05037,-0.0635 -0.07571,-0.09512c-0.01695,-0.02109 -0.03509,-0.04118 -0.05436,-0.06018c-0.01941,-0.01941 -0.03883,-0.03624 -0.05824,-0.05047c-0.01358,-0.00947 -0.02786,-0.01791 -0.04271,-0.02524c0.69887,-0.67299 1.36862,-1.44627 2.00925,-2.31986c0.64598,-0.88385 1.23413,-1.80854 1.76076,-2.7683c0.00843,-0.01552 0.01684,-0.03105 0.02524,-0.04659c0.55004,-1.00301 1.01918,-2.02219 1.40745,-3.05755zM199.31998,183.42639v-0.56298h9.60945v0.56298zM253.38529,188.74556l-0.23296,-0.52415c0.48015,-0.12424 1.02177,-0.27049 1.62487,-0.43873c0.28689,-0.07943 0.57356,-0.15967 0.86,-0.24072c0.95771,-0.27178 1.98013,-0.56298 3.06726,-0.87359c1.08713,-0.31061 2.18073,-0.62122 3.2808,-0.93183l0.07765,0.50474c-1.02242,0.29767 -2.06102,0.59857 -3.11579,0.90271c-1.05478,0.30414 -2.05778,0.5921 -3.00902,0.86388c-0.42402,0.12106 -0.84787,0.24272 -1.27155,0.36497c-0.45556,0.13201 -0.88265,0.25625 -1.28126,0.37273zM203.70733,187.87197v-4.9115h0.56298v4.9115c0.00015,0.06091 -0.00244,0.1218 -0.00777,0.18248c-0.01424,0.15401 -0.04724,0.27114 -0.09901,0.35138c-0.03066,0.04675 -0.07024,0.08699 -0.11648,0.11842c-0.07636,0.05177 -0.17666,0.09318 -0.3009,0.12424c-0.06994,0.016 -0.14054,0.02895 -0.2116,0.03883c-0.1566,0.022 -0.34749,0.03883 -0.57268,0.05047c-0.0718,0.00326 -0.14363,0.00585 -0.21548,0.00777c-0.39991,0.01165 -0.91565,0.01812 -1.54722,0.01941c-0.07636,0.00007 -0.15272,0.00007 -0.22907,0c-0.00534,-0.03144 -0.01247,-0.06255 -0.02135,-0.09318c-0.00906,-0.03365 -0.02071,-0.06859 -0.03494,-0.10483c-0.00979,-0.02482 -0.02015,-0.04942 -0.03106,-0.07377c-0.0327,-0.07513 -0.06831,-0.14896 -0.10677,-0.22131c-0.01261,-0.02348 -0.02555,-0.04678 -0.03883,-0.06989c0.4232,0.01165 0.8037,0.02071 1.14149,0.02718c0.02394,0.00066 0.04789,0.0013 0.07183,0.00194c0.35591,0.00647 0.65034,0.00647 0.88329,0c0.05435,-0.00139 0.10871,-0.00269 0.16307,-0.00388c0.15013,-0.00388 0.26402,-0.00582 0.34167,-0.00582c0.03118,-0.00283 0.06226,-0.00672 0.09318,-0.01165c0.10354,-0.01553 0.17278,-0.04077 0.20772,-0.07571c0.0453,-0.0453 0.06795,-0.13266 0.06795,-0.26208zM259.5004,179.272v-8.037h0.58239v8.037zM259.71394,179.23317c0.08628,0.28565 0.17949,0.56917 0.27955,0.85029c0.41067,1.16686 0.95528,2.28214 1.62293,3.32351c0.80241,1.24243 1.76335,2.30692 2.88284,3.19344c1.11949,0.88653 2.3781,1.56922 3.77584,2.04808c0.01994,-0.02662 0.04,-0.05316 0.06018,-0.07959c0.02188,-0.02856 0.04389,-0.05704 0.066,-0.08542c0.00065,-0.00065 0.00129,-0.00129 0.00194,-0.00194c0.04601,-0.05913 0.09392,-0.11675 0.14366,-0.17278c0.01541,-0.01758 0.03094,-0.03505 0.04659,-0.05242c0.01553,-0.01553 0.02977,-0.03041 0.04271,-0.04465c0.01531,-0.01639 0.03084,-0.03257 0.04659,-0.04853c-0.04408,-0.01401 -0.08808,-0.02824 -0.13201,-0.04271c-1.31552,-0.41677 -2.54851,-1.05921 -3.64383,-1.8986c-1.10654,-0.85417 -2.05131,-1.8863 -2.8343,-3.09638c-0.12289,-0.1894 -0.24134,-0.38164 -0.35526,-0.57657c-0.62872,-1.08757 -1.12532,-2.24632 -1.47927,-3.45164zM259.36449,179.07787c-0.22592,0.24314 -0.46234,0.47632 -0.70858,0.69887c-0.32397,0.29306 -0.66079,0.57159 -1.00948,0.83476c-0.02068,0.01557 -0.04138,0.0311 -0.06212,0.04659c-0.66726,0.4997 -1.36275,0.96055 -2.08302,1.38027c-0.76358,0.4465 -1.54334,0.8477 -2.33927,1.20361c-0.29362,0.13132 -0.59006,0.25624 -0.88912,0.37467c-0.45708,0.18206 -0.92144,0.34527 -1.39191,0.48921c0.02172,0.01624 0.04246,0.03374 0.06212,0.05242c0.0301,0.02894 0.058,0.06009 0.08348,0.09318c0.00065,0.00065 0.00129,0.00129 0.00194,0.00194c0.04601,0.05913 0.09392,0.11675 0.14366,0.17278c0.01359,0.01498 0.02654,0.03053 0.03883,0.04659c0.03184,0.04233 0.05795,0.08867 0.07765,0.13783c0.32269,-0.11148 0.64247,-0.23123 0.959,-0.35914c0.43951,-0.17859 0.87389,-0.36956 1.30261,-0.57268c0.79593,-0.37532 1.58216,-0.79593 2.35868,-1.26185c0.00583,-0.00388 0.01165,-0.00776 0.01747,-0.01165c0.75001,-0.4489 1.47339,-0.94087 2.1665,-1.47345c0.28767,-0.221 0.5674,-0.45216 0.83864,-0.69305c0.32207,-0.28624 0.62859,-0.58952 0.91824,-0.90853zM274.77846,180.57267l0.56298,0.1553c-0.33649,0.81535 -0.7377,1.60805 -1.20361,2.3781c-0.46591,0.77005 -0.96742,1.4851 -1.50451,2.14514c-0.34648,0.42739 -0.71519,0.83628 -1.1046,1.22496c-0.18004,0.17934 -0.36519,0.35348 -0.55521,0.52221c-0.00927,-0.01377 -0.01966,-0.02676 -0.03106,-0.03883c-0.02588,-0.02718 -0.06083,-0.0563 -0.10483,-0.08736c-0.06471,-0.0453 -0.13266,-0.09059 -0.20384,-0.13589c-0.025,-0.01591 -0.05024,-0.03144 -0.07571,-0.04659c-0.0233,-0.01424 -0.04594,-0.02718 -0.06795,-0.03883c-0.01347,-0.00735 -0.02706,-0.01447 -0.04077,-0.02135c0.63485,-0.52823 1.21912,-1.11445 1.74523,-1.75106c0.25503,-0.30658 0.49851,-0.62259 0.72993,-0.94736c0.75711,-1.06125 1.37509,-2.18073 1.85395,-3.35846zM238.53432,178.92256v-7.45461h0.56298v7.45461zM238.84492,174.69052h3.86319v-0.56298h-3.86319zM283.04841,180.92211c0.53062,0.60828 1.04507,1.27802 1.54334,2.00925c0.12337,0.18068 0.24504,0.36252 0.36497,0.54551c0.34463,0.52615 0.67287,1.06285 0.98424,1.60934c0.09115,0.15974 0.17982,0.32089 0.26596,0.48338c0.26919,0.50992 0.47821,0.97324 0.62704,1.38997l0.50474,-0.23296c-0.12295,-0.33002 -0.28019,-0.68528 -0.47174,-1.06578c-0.13935,-0.27643 -0.2863,-0.54896 -0.44068,-0.81729c-0.10164,-0.17648 -0.20518,-0.35185 -0.31061,-0.52609c-0.33017,-0.54662 -0.67652,-1.08331 -1.0386,-1.60934c-0.12315,-0.17899 -0.2487,-0.35631 -0.37661,-0.53192c-0.36716,-0.50611 -0.75645,-0.99579 -1.16672,-1.46763zM255.96722,187.71667v-5.59095l0.56298,-0.56298v0.01941v6.13452zM237.44719,179.46613l-0.25237,-0.54357c0.7377,-0.18119 1.62099,-0.40444 2.64988,-0.66975c1.02889,-0.26531 2.07396,-0.54033 3.13521,-0.82505l0.05824,0.52415c-0.98359,0.27178 -1.96719,0.54033 -2.95078,0.80564c-0.91888,0.24719 -1.74717,0.4698 -2.48487,0.66781c-0.05177,0.0136 -0.10353,0.02718 -0.1553,0.04077zM266.8191,180.53385l0.38826,0.34943c-0.25251,0.22861 -0.51146,0.45 -0.77652,0.66393c-0.22315,0.18089 -0.44968,0.35758 -0.67946,0.52998c-0.54357,0.40767 -1.0936,0.79917 -1.65011,1.17449c-0.55651,0.37532 -1.08066,0.71181 -1.57246,1.00948l-0.33002,-0.36885c0.2515,-0.15647 0.5013,-0.31567 0.74934,-0.47756c0.27275,-0.1781 0.5439,-0.35865 0.81341,-0.54162c0.56298,-0.38179 1.11625,-0.77976 1.65981,-1.1939c0.22589,-0.17131 0.44917,-0.34605 0.66975,-0.52415c0.2006,-0.16307 0.38697,-0.32032 0.5591,-0.47174c0.05666,-0.04942 0.11296,-0.09925 0.16889,-0.14948zM248.10494,172.8657l0.54357,0.40767c-0.26449,0.17975 -0.53652,0.34815 -0.81535,0.50474c-0.28472,0.15919 -0.5908,0.31773 -0.91824,0.47562c-0.1108,0.05283 -0.22211,0.1046 -0.3339,0.1553c-0.58868,0.26911 -1.18285,0.52607 -1.78212,0.7707c-0.19162,0.07779 -0.38381,0.15415 -0.57657,0.22907c-0.0058,-0.02792 -0.01425,-0.05522 -0.02524,-0.08153c-0.01035,-0.02588 -0.02394,-0.05306 -0.04077,-0.08153c-0.00981,-0.01715 -0.02017,-0.03398 -0.03106,-0.05047c-0.05177,-0.07765 -0.09707,-0.14883 -0.13589,-0.21354c0.50474,-0.20707 1.01595,-0.42709 1.53363,-0.66004c0.37568,-0.16827 0.746,-0.34825 1.11043,-0.53968c0.1159,-0.06145 0.23109,-0.12422 0.34555,-0.18831c0.17406,-0.0965 0.3456,-0.19748 0.51445,-0.30284c0.15919,-0.09965 0.30543,-0.19801 0.43873,-0.29508c0.05838,-0.04229 0.11599,-0.08566 0.17278,-0.13007zM242.84401,178.76726l0.58239,0.21354c-0.15141,0.36136 -0.30348,0.72244 -0.45621,1.08325c-0.02264,0.05307 -0.04528,0.10613 -0.06795,0.15919c-0.07538,0.17788 -0.155,0.35395 -0.23878,0.52803c-0.08153,0.17083 -0.16372,0.33002 -0.24655,0.47756c-0.01913,0.03381 -0.03854,0.06746 -0.05824,0.10095l-0.50474,-0.19413c0.18119,-0.32355 0.36885,-0.71505 0.56298,-1.17449c0.06865,-0.16238 0.13402,-0.32613 0.19607,-0.49115c0.06083,-0.15919 0.11324,-0.30931 0.15725,-0.45038c0.02637,-0.08359 0.05097,-0.16773 0.07377,-0.25237zM203.70733,173.56456v-2.21309h0.56298v2.21309z"/></g></g></svg>